<svg width="345" height="83" viewBox="0 0 345 83" fill="none" xmlns="http://www.w3.org/2000/svg">
<g clip-path="url(#clip0)">
<path d="M81.0267 76.8152H61.893L56.0396 62.697H24.1513L18.8185 76.8152H0L28.7501 5.50977H49.3471L81.0267 76.8152ZM39.3106 22.5485L28.8558 50.2537H50.812L39.3106 22.5485Z" fill="black"/>
<path d="M150.53 5.50977H166.004V76.8152H148.228V32.2757L128.991 54.6477H126.273L107.037 32.2757V76.8144H89.2617V5.50977H104.735L127.631 31.9609L150.53 5.50977Z" fill="black"/>
<path d="M211.043 5.50977C237.075 5.50977 250.455 21.7131 250.455 41.2643C250.455 61.756 237.493 76.8152 209.055 76.8152H179.571V5.50977H211.043ZM197.346 63.7462H208.949C226.827 63.7462 232.16 51.6156 232.16 41.1586C232.16 28.9249 225.572 18.5771 208.74 18.5771H197.345V63.7462H197.346Z" fill="black"/>
<path d="M285.819 22.4168L263.406 0H345V81.5968L322.587 59.1826V22.4168H285.819Z" fill="black"/>
<path d="M285.793 26.9092L262.718 49.9836V82.2838H295.014L318.088 59.2094H285.793V26.9092Z" fill="black"/>
</g>
<defs>
<clipPath id="clip0">
<rect width="345" height="82.2838" fill="white"/>
</clipPath>
</defs>
</svg>
