<?xml version="1.0" encoding="UTF-8"?>
<svg width="545px" height="104px" viewBox="0 0 545 104" version="1.1" xmlns="http://www.w3.org/2000/svg" xmlns:xlink="http://www.w3.org/1999/xlink">
    <!-- Generator: Sketch 52.6 (67491) - http://www.bohemiancoding.com/sketch -->
    <title>COB LOGO_Simple</title>
    <desc>Created with Sketch.</desc>
    <g id="Website" stroke="none" stroke-width="1" fill="none" fill-rule="evenodd">
        <g id="COB-LOGO_Simple">
            <path d="M149.9639,91.3687 C155.0189,91.3687 158.5119,90.2827 160.4459,88.1097 C162.3799,85.9367 163.3499,82.0047 163.3499,76.3127 C163.3499,70.4637 162.3419,66.3737 160.3309,64.0407 C158.3569,61.6707 154.8999,60.4857 149.9639,60.4857 L149.9639,91.3687 Z M149.9639,50.7207 C154.7439,50.7207 158.0579,49.6117 159.9139,47.4007 C161.7689,45.0697 162.6979,40.9797 162.6979,35.1277 C162.6979,25.2497 159.1429,20.3107 152.0409,20.3107 L151.0899,20.3107 L150.5579,20.3107 C150.2379,20.3107 150.0419,20.3307 149.9639,20.3697 L149.9639,50.7207 Z M138.3879,10.3977 L155.0959,10.3977 C168.1709,10.3977 174.7089,18.5177 174.7089,34.7617 C174.7089,40.9657 173.8569,45.5687 172.1609,48.5717 C170.4569,51.5767 167.4589,53.8477 163.1499,55.3877 C168.0889,57.3657 171.4689,59.8957 173.2879,62.9757 C175.1019,66.0187 176.0109,70.6047 176.0109,76.7287 C176.0109,93.5227 168.8349,101.9197 154.4779,101.9197 L138.3879,101.9197 L138.3879,10.3977 Z" id="Fill-1" fill="#1A1919"></path>
            <path d="M198.4087,50.9371 C203.1927,50.9371 206.5687,49.8331 208.5427,47.6191 C210.5167,45.4051 211.5087,41.6711 211.5087,36.4141 C211.5087,33.5691 211.2997,31.1381 210.8857,29.1231 C210.4677,27.1081 209.8167,25.4671 208.9277,24.2021 C208.0387,22.9381 206.8957,22.0081 205.4947,21.4161 C204.0907,20.8241 202.4227,20.5271 200.4857,20.5271 L198.4087,20.5271 L198.4087,50.9371 Z M186.1127,10.3971 L202.3287,10.3971 C209.0337,10.3971 214.0237,11.9991 217.3007,15.1981 C221.4457,19.3501 223.5177,25.6931 223.5177,34.2271 C223.5177,40.7871 222.4207,46.0531 220.2327,50.0251 C218.0377,53.9971 214.9087,56.4571 210.8447,57.4031 L227.6637,101.9191 L215.1707,101.9191 L198.4087,57.1061 L198.4087,101.9191 L186.1127,101.9191 L186.1127,10.3971 Z" id="Fill-3" fill="#1A1919"></path>
            <path d="M264.0127,74.5005 L261.2887,59.9175 C259.4707,49.9975 257.9917,39.4065 256.8447,28.1445 C256.2867,33.6395 255.5747,39.1995 254.7107,44.8325 C253.8377,50.4635 252.8137,56.4405 251.6257,62.7625 L249.3727,74.5005 L264.0127,74.5005 Z M252.2197,10.3975 L261.8257,10.3975 L281.4467,101.9195 L269.2317,101.9195 L265.7987,84.0505 L247.6567,84.0505 L244.1547,101.9195 L232.3007,101.9195 L252.2197,10.3975 Z" id="Fill-5" fill="#1A1919"></path>
            <path d="M294.9307,10.3975 L305.4827,10.3975 L313.5477,47.7445 C314.5347,52.4075 315.4317,57.0815 316.2427,61.7655 C317.0537,66.4475 317.7947,71.3585 318.4667,76.4955 C318.5487,75.8235 318.6027,75.2985 318.6427,74.9245 C318.6837,74.5495 318.7247,74.2835 318.7617,74.1235 L320.4827,63.6315 L322.0267,53.6715 L323.3867,47.0925 L330.5587,10.3975 L341.2337,10.3975 L349.6467,101.9195 L337.8287,101.9195 L335.8057,70.8585 C335.7287,69.2775 335.6587,67.9165 335.6007,66.7685 C335.5437,65.6225 335.5147,64.6735 335.5147,63.9235 L334.9377,51.6515 L334.6387,40.3895 C334.6387,40.3095 334.6307,40.1415 334.6147,39.8855 C334.5887,39.6295 334.5607,39.2835 334.5197,38.8475 L334.2247,40.6845 C333.9097,42.8595 333.6217,44.7565 333.3687,46.3765 C333.1107,47.9985 332.8857,49.3615 332.6847,50.4655 L331.1487,58.8265 L330.5547,61.9655 L322.8547,101.9195 L314.5597,101.9195 L307.3337,67.4215 C306.3467,62.8755 305.4697,58.2635 304.6967,53.5795 C303.9257,48.8955 303.2297,43.9855 302.5987,38.8475 L299.0347,101.9195 L287.4017,101.9195 L294.9307,10.3975 Z" id="Fill-7" fill="#1A1919"></path>
            <path d="M369.9473,50.7388 C375.0513,50.7388 378.5703,49.7128 380.5103,47.6578 C382.4853,45.5628 383.4763,41.8478 383.4763,36.5128 C383.4763,31.0588 382.5263,27.0668 380.6303,24.5398 C378.7293,22.0078 375.7433,20.7448 371.6683,20.7448 L369.9473,20.7448 L369.9473,50.7388 Z M357.6463,10.3978 L373.8843,10.3978 C381.7073,10.3978 387.3923,12.3738 390.9523,16.3268 C394.5083,20.3168 396.2813,26.6388 396.2813,35.2958 C396.2813,47.4658 392.7013,55.3308 385.5453,58.8878 C381.9493,60.5078 376.7473,61.3168 369.9473,61.3168 L369.9473,101.9198 L357.6463,101.9198 L357.6463,10.3978 Z" id="Fill-9" fill="#1A1919"></path>
            <polygon id="Fill-11" fill="#1A1919" points="400.373 10.3975 440.495 10.3975 440.495 21.1765 426.684 21.1765 426.684 101.9195 414.6 101.9195 414.6 21.1765 400.373 21.1765"></polygon>
            <path d="M478.8105,59.7315 C478.8105,43.8895 478.1025,33.3785 476.6765,28.2055 C475.2545,22.9915 472.3465,20.3825 467.9515,20.3825 C463.5605,20.3825 460.6355,22.7745 459.1735,27.5525 C457.7485,32.3735 457.0355,42.0525 457.0355,56.5915 C457.0355,69.9835 457.7855,79.2705 459.2925,84.4435 C460.8365,89.3455 463.7245,91.7945 467.9515,91.7945 C472.1095,91.7945 474.9565,89.5005 476.4995,84.9185 C478.0445,80.3765 478.8105,71.9795 478.8105,59.7315 M491.7665,58.4435 C491.7665,74.6045 489.9645,86.0865 486.3685,92.8835 C482.7715,99.6835 476.7425,103.0795 468.2795,103.0795 C459.3865,103.0795 453.1195,99.4215 449.4825,92.1135 C445.8815,84.9595 444.0825,72.2535 444.0825,53.9945 C444.0825,37.7145 445.8655,26.1945 449.4205,19.4365 C453.0215,12.6405 459.1085,9.2405 467.6895,9.2405 C475.3575,9.2405 481.0505,11.8685 484.7665,17.1235 C487.2195,20.6425 488.9935,25.6415 490.1035,32.1215 C491.2095,38.1285 491.7665,46.9025 491.7665,58.4435" id="Fill-13" fill="#1A1919"></path>
            <path d="M501.7529,10.3975 L513.2179,10.3975 L525.4789,46.9145 C529.0329,57.2285 532.1709,68.2345 534.8989,79.9335 C533.9119,72.8595 533.1829,66.4575 532.7029,60.7275 C532.2319,54.9965 531.9909,49.6025 531.9909,44.5435 L531.9909,10.3975 L544.3649,10.3975 L544.3649,101.9195 L532.8219,101.9195 L519.0309,60.7205 C517.7699,56.8895 516.5729,52.9565 515.4499,48.9255 C514.3239,44.8935 513.2879,40.6665 512.3419,36.2375 C512.2639,35.6875 512.1369,35.0155 511.9559,34.2245 C511.7799,33.4345 511.5709,32.5275 511.3339,31.4975 C511.4529,32.5275 511.5509,33.4055 511.6289,34.1345 C511.7109,34.8665 511.7689,35.4885 511.8099,36.0005 L512.4609,45.3095 L513.1929,56.6325 C513.2339,57.2655 513.2719,58.0355 513.2959,58.9455 C513.3199,59.8525 513.3289,60.8805 513.3289,62.0275 L513.9809,101.9195 L501.7529,101.9195 L501.7529,10.3975 Z" id="Fill-15" fill="#1A1919"></path>
            <path d="M62.9707,80.7515 C64.6457,78.2575 68.3467,78.0165 70.3797,75.9995 C72.4127,73.9765 76.5907,70.9495 76.5907,70.9495 C76.5907,70.9495 71.0697,73.5215 68.7617,74.3745 C66.0507,75.3725 62.3777,76.4445 59.2747,74.3125 C57.9917,73.4295 56.6587,71.3475 58.0167,67.8215 C59.2977,64.4745 63.6857,61.3675 63.6857,61.3675 C63.6857,61.3675 59.7957,61.5165 57.9167,63.1605 C56.2637,64.6035 54.5757,66.6705 53.6377,69.8125 C52.9457,72.1255 52.7817,75.3725 52.7817,75.3725 C52.7817,75.3725 46.5457,72.7055 44.1117,72.1035 C39.8137,71.0285 37.9167,71.9675 37.9167,71.9675 C42.6937,74.9395 46.1317,78.9175 47.9137,80.8715 C49.3937,82.4985 52.5187,86.0345 55.7997,86.3385 C59.2817,86.6675 61.2957,83.2515 62.9707,80.7515" id="Fill-17" fill="#005084"></path>
            <path d="M29.4565,26.2847 C29.4565,26.2847 26.3315,31.4027 24.8635,36.4547 C23.5775,40.8667 23.9355,45.4067 24.5405,48.2177 C26.2505,56.1367 30.5105,61.4347 33.2865,64.5117 C35.4225,66.8807 37.3355,68.9517 37.3355,68.9517 C37.3355,68.9517 41.1195,68.2197 43.3335,68.9767 C43.3335,68.9767 40.2845,63.8267 39.2305,61.0557 C35.1775,50.3737 40.8175,43.8057 40.8175,43.8057 C40.8175,43.8057 37.9825,33.2567 37.4895,28.5567 C37.0975,24.7997 36.2005,17.5987 39.1615,13.0437 C42.0725,8.5617 45.3105,5.3887 51.8945,5.1877 C53.3555,5.1437 57.7755,5.3667 59.2345,5.8367 C59.2345,5.8367 64.0685,3.3067 70.0875,4.2377 C70.0875,4.2377 59.9025,-1.7923 47.5875,1.2777 C32.5745,5.0177 30.3595,19.6357 30.0455,21.5907 C29.7325,23.5607 29.4565,26.2847 29.4565,26.2847" id="Fill-19" fill="#F3B335"></path>
            <path d="M49.9463,8.3589 C47.5243,9.2829 46.4863,10.1419 45.6303,11.8539 C44.7703,13.5649 43.9863,17.1019 46.5583,20.5259 C46.5583,20.5259 49.4943,11.5299 55.8373,8.0349 C55.8373,8.0349 52.3673,7.4369 49.9463,8.3589" id="Fill-21" fill="#F3B335"></path>
            <path d="M73.3125,18.9429 C72.9895,24.6159 69.6895,27.6019 68.0205,28.9709 C61.7595,34.0989 46.2095,40.7909 42.9385,47.3129 C37.2735,58.6089 49.8205,71.7989 49.8205,71.7989 L50.0535,70.2639 C45.6895,64.8899 44.8335,62.2059 44.2495,58.8389 C42.6785,49.8149 47.3675,45.2469 52.5755,43.1419 C61.9355,39.3639 83.9625,36.6219 87.1845,26.6139 C88.8905,21.3079 88.2075,16.7579 83.9785,12.4449 C75.3605,3.6629 64.8655,7.1839 64.8655,7.1839 C69.9095,8.9959 73.6425,13.2689 73.3125,18.9429" id="Fill-23" fill="#F3B335"></path>
            <path d="M68.9746,21.3663 C70.6746,17.3293 68.8456,14.4323 65.8376,11.7263 C64.2976,10.3413 60.8526,8.9773 60.8526,8.9773 C54.9776,10.5763 49.4816,23.0143 49.4816,23.0143 C55.8876,27.3263 65.6336,29.2823 68.9746,21.3663" id="Fill-25" fill="#F3B335"></path>
            <path d="M41.3042,29.2085 C41.9882,33.0575 44.1432,40.2575 44.1432,40.2575 L49.8272,36.3605 L60.1062,29.8215 C60.1062,29.8215 56.8782,30.2545 53.2772,29.0545 C50.2822,28.0575 49.2092,27.6725 45.7552,25.0645 C40.8622,21.3665 41.5332,17.4675 41.5332,17.4675 C40.3062,20.9955 40.6922,25.7545 41.3042,29.2085" id="Fill-27" fill="#F3B335"></path>
            <path d="M47.5186,57.2945 C48.5006,62.8525 51.4806,67.1425 51.4806,67.1425 C52.5626,64.4465 55.5926,58.4425 62.6376,58.6755 C65.6746,58.7765 68.4696,59.5195 68.4696,59.5195 C68.4696,59.5195 62.6916,65.9215 61.4526,68.9415 C60.2166,71.9615 62.7886,71.9615 64.2156,72.0625 C65.6436,72.1665 68.8086,71.3475 70.9636,70.2575 C73.7046,68.8665 76.4466,66.8205 78.7366,63.4485 C81.6596,59.1455 82.2556,53.3735 82.4946,49.1085 C82.6726,45.8785 81.0396,37.4565 81.0396,37.4565 C78.7016,39.1095 62.4056,43.2925 55.5736,45.4955 C48.2426,47.8565 46.8286,53.3805 47.5186,57.2945" id="Fill-29" fill="#F3B335"></path>
            <path d="M111.5635,10.3482 L86.2645,10.3462 C86.2645,10.3462 90.2615,14.0712 91.2685,20.1462 C91.9615,24.3112 91.6285,29.9472 84.7555,35.7582 C84.7555,35.7582 86.0705,45.0632 86.0635,49.6322 C86.0545,63.2792 78.0645,69.3932 78.0645,69.3932 L80.7095,70.9492 C80.7095,70.9492 77.7325,73.3702 76.2085,75.1832 C74.6875,76.9962 72.4975,79.0112 71.3555,79.6132 C70.2105,80.2182 69.1665,80.5192 68.1185,81.2252 C67.0705,81.9282 65.4515,83.0382 64.0245,84.9522 C62.5935,86.8662 60.1405,89.3942 57.4745,89.6952 L57.5215,101.8942 L74.7465,101.9072 C74.7465,101.9072 74.5205,85.0462 89.4145,72.0692 C96.4225,65.9612 100.0175,62.5692 103.9815,58.6372 C108.2605,54.3922 109.9485,50.7692 110.5635,47.4872 C111.0365,44.9712 111.5635,41.4312 111.5445,28.7332 C111.5295,17.0162 111.5635,10.3482 111.5635,10.3482" id="Fill-31" fill="#005084"></path>
            <path d="M111.1592,72.5865 L111.2472,57.0845 C111.2472,57.0845 105.4312,64.0505 98.0472,70.2445 C91.6192,75.6285 88.2632,78.3955 84.4952,84.7545 C79.7222,92.8105 79.1942,101.9065 79.1942,101.9065 L89.0502,101.8505 C89.0502,101.8505 89.6872,97.1665 90.4502,94.8525 C91.2122,92.5365 92.5792,89.6455 94.4652,86.9525 C98.2852,81.4915 111.1592,72.5865 111.1592,72.5865" id="Fill-33" fill="#005084"></path>
            <path d="M97.1812,90.5796 C94.4272,95.5416 93.8062,101.9476 93.8062,101.9476 L111.4512,101.9916 L111.5102,77.7816 C111.5102,77.7816 100.8142,84.0176 97.1812,90.5796" id="Fill-35" fill="#005084"></path>
            <path d="M6.7646,82.5113 C5.5726,81.6083 0.3396,77.6243 0.3396,77.6243 L0.3496,101.8843 L18.0666,101.8973 C17.3286,95.4073 15.9076,92.1283 13.8786,89.2813 C11.6886,86.2123 7.9566,83.4113 6.7646,82.5113" id="Fill-37" fill="#005084"></path>
            <path d="M48.4971,86.6958 C47.7031,85.9738 43.5531,81.1688 42.7001,80.2018 C41.8471,79.2428 38.9011,76.5508 37.0031,75.0898 C35.4161,73.8658 30.6611,71.8428 30.6611,71.8428 L33.8701,70.5588 C33.8701,70.5588 24.5751,61.0648 21.8471,52.6238 C16.3821,35.6958 26.3161,24.9578 26.3161,24.9578 C26.6581,16.1948 30.0831,10.3338 30.0831,10.3338 L0.3331,10.3888 C0.3331,10.3888 0.3521,40.4018 0.4211,45.0948 C0.5161,51.3528 2.9371,53.7278 6.4881,58.0918 C8.4581,60.5208 13.6151,64.8788 19.7911,69.9628 C27.1851,76.0498 32.1981,82.0478 34.6011,90.2178 C36.3321,96.1068 36.8931,101.8938 36.8931,101.8938 L53.3031,101.8938 L53.2811,89.6888 C51.8591,89.3868 49.2941,87.4178 48.4971,86.6958" id="Fill-39" fill="#005084"></path>
            <path d="M18.1006,74.3301 C13.2636,70.4341 8.0346,65.9911 6.7576,64.8701 C6.7576,64.8701 1.0556,59.2671 0.3396,56.9741 L0.3396,72.2541 C4.6246,75.7611 4.9136,75.8391 8.2256,78.4801 C10.9956,80.6921 14.7726,84.0611 16.6986,86.5711 C19.8506,90.6731 21.8526,94.2111 22.2286,101.8841 L32.3896,101.8971 C32.3896,101.8971 32.1316,94.7291 29.6756,89.1641 C27.2226,83.6031 23.0576,78.3211 18.1006,74.3301" id="Fill-41" fill="#005084"></path>
        </g>
    </g>
</svg>