<svg width="721" height="106" viewBox="0 0 721 106" fill="none" xmlns="http://www.w3.org/2000/svg">
<path d="M57.1629 35.8509C62.6638 38.9506 67.2107 43.4975 70.3104 48.9984L59.1814 56.8535C54.0893 48.7793 47.216 44.7425 38.5614 44.743C31.7974 44.743 26.2325 46.9614 21.8668 51.3982C17.5033 55.8345 15.3214 61.5445 15.3212 68.5281C15.3212 75.4391 17.5031 81.095 21.8668 85.4958C26.2318 89.8939 31.7967 92.0938 38.5614 92.0955C47.2157 92.0955 54.0891 88.0584 59.1814 79.9842L70.3104 87.8394C67.2625 93.3606 62.7263 97.9155 57.2177 100.986C51.4862 104.184 45.0154 105.821 38.4527 105.733C30.2568 105.905 22.2258 103.417 15.5634 98.6404C14.0341 97.5269 12.586 96.3059 11.23 94.9867C7.63389 91.575 4.79096 87.449 2.88381 82.8735C0.976665 78.2981 0.0474516 73.3744 0.155839 68.4185C0.04882 63.458 0.984063 58.5302 2.90109 53.9538C4.81812 49.3774 7.67426 45.2543 11.2848 41.851C18.7025 34.687 27.7947 31.1049 38.5615 31.1047C45.0718 31.0202 51.4889 32.6575 57.1629 35.8509" fill="black"/>
<path d="M142.093 41.8506C145.731 45.2378 148.613 49.3553 150.55 53.9336C152.486 58.5118 153.434 63.4475 153.331 68.4174C153.434 73.3875 152.487 78.3233 150.55 82.9018C148.614 87.4802 145.732 91.5978 142.093 94.9849C138.502 98.4862 134.251 101.239 129.587 103.085C124.924 104.93 119.94 105.83 114.925 105.734C109.926 105.837 104.958 104.939 100.311 103.093C95.6643 101.247 91.4338 98.49 87.8683 94.9849C84.2577 91.5817 81.4015 87.4586 79.4845 82.8822C77.5675 78.3057 76.6323 73.3779 76.7393 68.4174C76.6326 63.457 77.568 58.5294 79.485 53.9532C81.402 49.3769 84.258 45.2539 87.8683 41.8506C91.4342 38.3461 95.6647 35.59 100.311 33.7444C104.958 31.8987 109.927 31.0009 114.925 31.1036C119.94 31.0073 124.923 31.9076 129.587 33.7525C134.251 35.5974 138.501 38.35 142.093 41.8506V41.8506ZM98.4511 51.4C94.0868 55.8356 91.9047 61.508 91.9047 68.4174C91.9047 75.4005 94.0686 81.0929 98.3963 85.4947C102.724 89.895 108.27 92.0951 115.035 92.0951C118.099 92.1799 121.149 91.6327 123.993 90.4875C126.837 89.3424 129.414 87.6239 131.565 85.4391C135.964 81.0014 138.164 75.3274 138.165 68.4173C138.165 61.5085 135.965 55.836 131.565 51.3999C127.112 47.1279 121.179 44.7425 115.008 44.7425C108.837 44.7425 102.905 47.1279 98.4511 51.3999" fill="black"/>
<path d="M230.462 46.7064L219.989 55.3262C214.895 48.271 208.203 44.7424 199.913 44.7406C193.002 44.7406 187.419 46.9599 183.164 51.3987C178.908 55.835 176.781 61.5082 176.782 68.4183C176.782 75.4734 178.982 81.2559 183.382 85.7657C187.783 90.2763 193.584 92.5312 200.784 92.5305C209.151 92.5305 215.479 89.5482 219.768 83.5836V77.693H199.913V64.926H234.499V86.2025C231.169 92.0788 226.328 96.9575 220.478 100.333C214.315 103.957 207.278 105.824 200.129 105.732C189.292 105.732 180.164 102.15 172.745 94.9858C169.134 91.5825 166.278 87.4594 164.361 82.883C162.444 78.3066 161.509 73.3788 161.616 68.4183C161.509 63.4579 162.444 58.5302 164.361 53.9539C166.278 49.3776 169.134 45.2546 172.745 41.8515C180.165 34.6868 189.293 31.1045 200.129 31.1045C213.077 31.1045 223.188 36.3052 230.462 46.7066" fill="black"/>
<path d="M303.986 104.425L263.533 61.2189V104.423H248.803V32.1289H254.571L295.39 75.2909V32.4139H310.121V104.423L303.986 104.425Z" fill="black"/>
<path d="M342.646 32.415H327.918V104.425H342.646V32.415Z" fill="black"/>
<path d="M416.288 45.726H393.157V104.423H378.429V45.726H355.408V32.415H416.288V45.726Z" fill="black"/>
<path d="M444.213 32.415H429.483V104.425H444.213V32.415Z" fill="black"/>
<path d="M488.148 104.422L456.539 32.415H473.231L491.233 76.057L509.127 32.415H525.712L494.207 104.424L488.148 104.422Z" fill="black"/>
<path d="M583.36 45.726H549.646V60.345H574.414V72.894H549.646V91.112H584.669V104.423H534.918V32.415H583.36V45.726Z" fill="black"/>
<path d="M656.176 15.3625C654.255 12.0885 651.761 9.1866 648.812 6.7955C643.519 2.56358 636.913 0.313608 630.137 0.434303C622.56 0.508471 615.299 3.48092 609.845 8.74122C605.416 13.0587 602.428 18.6385 601.29 24.7181L601.288 24.7224H612.69C613.634 21.6597 615.373 18.9017 617.729 16.7289C620.806 13.9098 624.745 12.2127 628.908 11.9127C629.445 11.8652 629.967 11.8443 630.476 11.8443C634.88 11.8655 639.108 13.5757 642.288 16.6222C643.367 17.6181 644.342 18.7221 645.197 19.917C645.517 20.366 645.757 20.7407 645.915 20.9994C645.992 21.1284 646.053 21.23 646.09 21.2978L646.147 21.3972L646.341 21.7684L656.376 15.6997L656.176 15.3625Z" fill="black"/>
<path d="M720.78 24.7121C720.116 21.2675 718.895 17.9544 717.163 14.9033C715.053 11.3043 712.204 8.19296 708.804 5.77378C705.405 3.3546 701.532 1.68243 697.44 0.867234H697.438L697.436 0.865784C695.74 0.508838 694.012 0.325094 692.278 0.317383C692.174 0.317383 692.078 0.320984 691.986 0.320984C691.924 0.320984 691.85 0.317383 691.767 0.317383C689.483 0.31707 687.206 0.576741 684.981 1.09138C677.977 2.65157 672.798 6.44438 668.468 11.0327C664.139 15.6247 660.639 21.0166 656.961 25.837C656.818 26.0187 656.677 26.1981 656.535 26.3732C649.755 34.8135 648.223 36.7823 644.632 41.3325C642.989 43.1472 641.094 44.7167 639.005 45.9929C636.244 47.431 633.173 48.1715 630.06 48.1499C625.452 48.0459 621.054 46.2034 617.748 42.9922C616.475 41.7283 615.38 40.298 614.492 38.7403C614.285 38.3721 614.102 38.019 613.939 37.6874C613.554 36.907 613.243 36.0922 613.009 35.2538H601.297L601.299 35.2639C601.964 38.7082 603.186 42.0211 604.917 45.072C607.028 48.6715 609.876 51.7834 613.275 54.2031C616.675 56.6228 620.548 58.2954 624.64 59.111H624.643C626.339 59.4678 628.067 59.6516 629.8 59.6594C629.905 59.6594 630.002 59.6572 630.093 59.655C630.156 59.6572 630.228 59.6594 630.312 59.6594C632.596 59.66 634.873 59.4005 637.099 58.8861C644.101 57.3245 649.28 53.5339 653.609 48.9433C657.94 44.3528 661.44 38.9594 665.119 34.1383C665.261 33.9574 665.403 33.7794 665.544 33.6022C672.324 25.1648 673.857 23.1953 677.448 18.6444C679.09 16.8292 680.985 15.2601 683.075 13.9854C685.834 12.5465 688.905 11.8055 692.017 11.827C696.626 11.9294 701.025 13.7727 704.33 16.9861C705.602 18.2498 706.697 19.679 707.587 21.2351C707.795 21.6063 707.98 21.9587 708.142 22.2923C708.525 23.0717 708.835 23.8849 709.068 24.7216H720.783L720.78 24.7121ZM708.142 22.2921L708.145 22.2943L708.142 22.2921Z" fill="black"/>
<path d="M709.427 35.2549C708.486 38.3602 706.734 41.158 704.35 43.3594C701.272 46.1791 697.333 47.8765 693.17 48.1762C692.633 48.2231 692.112 48.244 691.603 48.244C687.199 48.2241 682.971 46.5143 679.791 43.4675C678.712 42.4703 677.737 41.3658 676.882 40.1712C676.562 39.7223 676.322 39.3504 676.164 39.0888C676.086 38.9605 676.027 38.8589 675.989 38.7904L675.934 38.6917L675.736 38.3206L665.702 44.3892L665.903 44.7264C667.824 48.0003 670.318 50.9019 673.266 53.2928C678.56 57.5257 685.166 59.7758 691.943 59.654C699.52 59.5814 706.782 56.6087 712.234 51.347C716.663 47.0289 719.651 41.4495 720.791 35.3702L720.806 35.2549L709.427 35.2549Z" fill="black"/>
</svg>
