<svg width="967" height="197" viewBox="0 0 967 197" fill="none" xmlns="http://www.w3.org/2000/svg">
<path d="M461.265 126.3C459.47 125.894 456.736 129.639 454.428 131.51C454.195 131.699 453.98 131.91 453.748 132.103C437.231 145.785 413.569 144.237 399.248 128.382C390.048 118.198 387.317 105.892 389.088 92.6819C391.105 77.6359 398.788 66.1701 413.08 60.1981C427.318 54.2481 440.389 57.227 452.364 66.598C455.03 68.684 457.186 73.127 460.253 72.504C463.068 71.932 465.029 67.8101 467.69 65.6531C470.971 62.9931 470.23 61.2281 467.49 58.5831C456.776 48.2218 442.408 42.5034 427.505 42.6685C412.601 42.8336 398.364 48.8691 387.882 59.4651C371.852 75.6751 367.246 100.495 376.237 122.213C384.837 142.984 404.518 155.84 427.724 155.843C444.818 155.843 458.683 149.683 469.624 137.272C470.673 136.082 471.792 135.082 470.138 133.533C467.309 130.878 464.841 127.109 461.265 126.3Z" fill="#5BBC76"/>
<path d="M113.721 162.606C95.3315 160.7 80.0686 152.466 67.1486 139.437C61.3966 133.637 57.1896 126.827 53.5116 119.543C46.4686 126.643 44.9395 137.143 50.0765 147.696C57.8585 163.688 71.2765 173.012 88.3975 175.996C98.5555 177.768 108.439 175.396 115.461 166.363C117.769 163.396 116.967 162.943 113.721 162.606Z" fill="#5BBC76"/>
<path d="M75.6342 183.623C68.9057 182.74 62.5696 179.952 57.3723 175.588C53.2503 172.28 50.5912 167.753 47.2362 162.075C44.6782 171.502 44.0093 179.334 47.5453 187.181C49.4383 191.381 52.5202 193.27 57.0142 193.368C64.2222 193.525 70.4882 190.868 76.3542 187.035C77.2372 186.458 78.9353 186.135 78.4313 184.586C78.0553 183.435 76.6382 183.744 75.6342 183.623Z" fill="#5BBC76"/>
<path d="M183.118 83.1041C179.998 78.8271 180.602 75.9811 185.401 73.7371C194.643 69.4161 199.06 61.974 199.612 52.015C199.895 43.564 195.763 37.2211 189.678 32.1441C187.292 30.1519 185.595 27.4573 184.829 24.4442C180.711 10.7682 172.55 4.99902 158.282 6.04402C154.463 6.33395 150.64 5.53072 147.261 3.7281C130.207 -4.7269 112.968 5.37903 111.754 24.356C111.493 28.435 108.415 30.5972 104.391 29.5172C85.9052 24.5562 67.2712 23.859 48.6592 28.398C33.4932 32.098 19.0262 37.388 8.01519 49.368C-3.69381 62.109 -2.51382 79.4822 11.1602 90.0902C23.7242 99.8352 38.5732 102.567 53.9602 103.139C56.9132 103.249 58.4602 103.82 59.4602 106.869C67.5602 131.554 101.23 154.616 126.909 152.998C130.387 152.779 131.768 154.062 133.079 157.144C139.126 171.353 147.322 183.981 161.071 192.032C175.34 200.387 191.432 195.641 198.971 180.97C204.652 169.922 205.571 158.087 205.171 145.919C204.391 122.626 196.77 101.817 183.118 83.1041ZM175.51 39.918C178.557 39.9849 181.456 41.2432 183.586 43.4229C185.716 45.6027 186.907 48.5302 186.903 51.5777C186.899 54.6252 185.701 57.55 183.566 59.7244C181.431 61.8989 178.528 63.1498 175.481 63.2091C172.383 63.142 169.427 61.8916 167.221 59.7144C165.015 57.5373 163.726 54.5985 163.618 51.501C163.678 48.3941 164.96 45.4359 167.186 43.2677C169.412 41.0994 172.403 39.8959 175.51 39.918V39.918ZM40.6602 86.97C34.5727 85.8202 28.8457 83.2398 23.9512 79.442C15.9822 73.092 15.4952 63.5741 22.6152 56.3131C28.0492 50.7721 34.8462 47.6582 42.1012 45.4552C53.738 41.8316 65.8543 39.9818 78.0422 39.9681C85.8132 39.8451 94.2662 40.8482 102.254 44.4552C104.889 45.5683 107.312 47.1284 109.416 49.067C116.844 56.21 116.748 64.867 109.116 71.848C102.74 77.686 94.9732 80.93 86.8652 83.348C71.7482 87.85 56.4112 90.245 40.6602 86.97V86.97ZM120.551 125.533C107.6 120.612 96.034 112.627 86.8422 102.261C85.4292 100.672 85.6262 99.652 87.7562 99.181C94.3149 97.6127 100.685 95.341 106.756 92.4051C109.921 90.9441 122.983 100.257 122.984 103.768C122.984 106.168 122.984 108.566 122.984 110.962C122.674 115.003 122.858 119.066 123.531 123.062C123.969 125.632 122.917 126.447 120.551 125.533ZM124.423 24.962C124.38 23.4145 124.646 21.8742 125.206 20.4307C125.765 18.9873 126.607 17.6698 127.681 16.5553C128.756 15.4407 130.041 14.5514 131.463 13.9395C132.885 13.3277 134.415 13.0054 135.963 12.9915C137.511 12.9776 139.046 13.2725 140.479 13.8587C141.912 14.445 143.214 15.311 144.308 16.4061C145.402 17.5011 146.267 18.8032 146.852 20.2364C147.438 21.6696 147.731 23.205 147.716 24.753C147.827 30.745 142.424 36.308 136.374 36.431C134.836 36.4634 133.307 36.1924 131.874 35.6334C130.441 35.0744 129.132 34.2385 128.022 33.1734C126.912 32.1083 126.023 30.8348 125.405 29.4259C124.788 28.0169 124.454 26.5 124.423 24.962V24.962ZM189.523 157.567C189.194 162.086 187.908 166.483 185.749 170.467C181.849 177.72 175.392 179.881 167.864 176.435C162.244 173.862 157.944 169.665 154.364 164.755C142.659 148.689 138.976 130.163 137.964 110.855C137.642 104.809 138.644 98.7663 140.9 93.148C144.805 83.668 153.1 80.593 162.259 85.276C167.768 88.1682 172.317 92.6012 175.35 98.034C186.036 116.419 191.097 136.231 189.525 157.567H189.523Z" fill="#5BBC76"/>
<path d="M682.932 43.6711C663.706 40.2211 648.144 47.1073 636.111 62.3413C635.39 63.2543 635.044 64.9181 632.936 64.6201V10.5141C632.936 0.501106 632.936 0.501223 622.702 0.509223C616.702 0.509223 616.702 0.509184 616.702 6.71918C616.702 51.6932 616.702 96.6667 616.702 141.64C616.702 154.07 616.702 153.975 629.202 153.597C632.226 153.506 633.089 152.411 632.985 149.564C632.811 144.814 632.938 140.054 632.938 134.738C635.332 135.726 636.011 137.132 636.954 138.272C655.124 160.226 688.986 162.22 709.077 141.972C727.399 123.507 730.439 101.2 722.404 77.3122C716.084 58.5342 702.396 47.1641 682.932 43.6711ZM687.402 137.697C667.543 146.906 644.002 137.139 635.902 116.751C628.239 97.4852 633.695 76.2872 649.248 64.8972C672.135 48.1342 703 60.9462 708.535 89.5522C709.16 92.7812 709.358 96.0921 709.705 98.9521C708.891 116.06 703.555 130.206 687.402 137.697Z" fill="#5BBC76"/>
<path d="M811.232 44.7792C791.941 39.3642 774.37 43.3471 760.245 58.0031C746.445 72.3251 742.416 90.0422 745.08 109.31C747.19 124.575 754.367 137.241 767.113 146.191C789.998 162.258 822.192 158.591 841.213 138.112C842.923 136.272 843.26 135.212 841.043 133.548C838.409 131.572 836.338 127.882 833.552 127.334C830.507 126.734 828.487 130.934 825.92 132.912C801.344 151.812 767.545 139.928 761.588 110.339C760.888 106.877 761.419 105.883 765.052 105.939C777.84 106.123 790.632 106.011 803.422 106.011C816.513 106.011 829.606 105.897 842.694 106.087C846.125 106.136 847.03 105.047 847.008 101.723C847.1 95.4052 846.448 89.0987 845.065 82.9332C840.491 64.2982 830.391 50.1552 811.232 44.7792ZM825.603 93.057C815.387 92.927 805.168 93.0111 794.95 93.0131C784.732 93.0151 774.514 92.99 764.296 93.036C762.243 93.045 760.605 92.8802 761.173 90.1552C764.073 76.2202 770.35 64.67 784.239 58.984C800.557 52.304 818.517 59.838 825.97 76.213C827.618 80.0804 828.867 84.1057 829.699 88.2262C830.512 91.7902 829.222 93.103 825.603 93.057Z" fill="#5BBC76"/>
<path d="M963.942 80.5952C952.08 38.4852 910.468 35.9354 888.475 50.5904C865.33 66.0124 856.782 99.3362 869.246 125.44C879.846 147.64 901.23 158.817 927.469 155.413C940.515 153.721 951.304 147.658 960.417 138.279C962.401 136.237 962.458 134.916 960.203 133.307C959.229 132.607 958.403 131.72 957.488 130.933C952.582 126.684 952.58 126.686 947.809 130.827C923.072 152.301 887.409 141.375 880.924 110.414C880.21 107.006 880.806 105.889 884.454 105.939C897.391 106.114 910.332 106.007 923.272 106.006C936.212 106.005 949.152 105.928 962.09 106.063C965.146 106.095 966.35 105.301 966.306 102.033C966.21 94.7902 965.921 87.6192 963.942 80.5952ZM945.642 93.0413C935.26 92.9643 924.876 93.0122 914.494 93.0152C904.412 93.0152 894.33 93.0311 884.248 93.0051C882.362 93.0051 879.924 93.5053 880.516 90.2053C883.278 74.8173 892.239 61.2901 908.284 57.4531C922.384 54.0801 936.424 60.4132 943.59 73.1052C946.252 77.9997 948.141 83.276 949.19 88.7473C949.908 92.1443 948.791 93.0643 945.645 93.0413H945.642Z" fill="#5BBC76"/>
<path d="M271.542 54.8401C256.886 68.1541 251.255 84.9929 252.67 104.347C254.284 126.439 264.597 143.433 285.357 151.682C306.688 160.16 327.3 157.321 345.219 141.905C351.894 136.163 351.755 136.005 345.419 130.265C344.935 129.907 344.485 129.505 344.075 129.065C342.157 126.527 340.475 126.685 338.356 129.036C336.581 130.877 334.607 132.514 332.47 133.919C310.382 149.448 276.225 142.482 269.554 110.4C268.841 106.972 269.391 105.886 273.042 105.935C285.971 106.109 298.905 106.003 311.837 106.003C324.769 106.003 337.702 105.903 350.637 106.069C353.988 106.111 355.097 105.046 355.072 101.704C355.155 94.03 354.152 86.3827 352.091 78.99C339.635 36.99 293.776 34.6441 271.542 54.8401ZM334.396 93.0759C324.319 92.9139 314.238 93.0181 304.158 93.0181C294.229 93.0181 284.299 93.032 274.37 93.011C268.605 92.999 268.394 92.819 269.887 87.085C273.887 71.7 282.312 60.3509 298.81 57.1899C312.91 54.4899 326.349 61.408 333.01 74.29C335.223 78.9026 336.852 83.7737 337.857 88.79C338.591 91.976 337.796 93.1299 334.396 93.0759Z" fill="#5BBC76"/>
<path d="M541.247 42.8323C508.922 42.8073 484.09 67.3664 484.036 99.4134C483.982 131.46 508.198 155.833 540.109 155.843C572.695 155.853 597.324 131.406 597.42 98.9564C597.48 91.5652 596.068 84.236 593.266 77.3963C590.464 70.5566 586.327 64.3435 581.099 59.1192C575.87 53.8949 569.653 49.7641 562.811 46.9678C555.969 44.1716 548.638 42.7657 541.247 42.8323V42.8323ZM555.571 138.58C531.99 147.707 507.056 133.737 501.9 108.516C501.255 105.617 500.977 102.647 501.075 99.6783C501.156 74.5033 518.795 56.5632 542.169 57.3162C561.708 57.9452 578.515 74.6094 580.32 95.1444C582.033 114.629 572.012 132.217 555.571 138.58Z" fill="#5BBC76"/>
</svg>
