<svg width="228" height="307" viewBox="0 0 228 307" fill="none" xmlns="http://www.w3.org/2000/svg">
<rect x="2.5" y="2.5" width="223" height="302" stroke="black" stroke-width="5"/>
<path d="M60.5845 168.594H54.2124V144.82H60.5845V168.594ZM53.8389 138.667C53.8389 137.715 54.1538 136.932 54.7837 136.316C55.4282 135.701 56.2998 135.394 57.3984 135.394C58.4824 135.394 59.3467 135.701 59.9912 136.316C60.6357 136.932 60.958 137.715 60.958 138.667C60.958 139.634 60.6284 140.425 59.9692 141.041C59.3247 141.656 58.4678 141.963 57.3984 141.963C56.3291 141.963 55.4648 141.656 54.8057 141.041C54.1611 140.425 53.8389 139.634 53.8389 138.667ZM71.7905 144.82L71.9883 147.479C73.6729 145.413 75.9507 144.38 78.8218 144.38C81.8833 144.38 83.9854 145.589 85.1279 148.006C86.7979 145.589 89.1782 144.38 92.269 144.38C94.8472 144.38 96.7661 145.135 98.0259 146.644C99.2856 148.138 99.9155 150.394 99.9155 153.411V168.594H93.5435V153.433C93.5435 152.085 93.2798 151.104 92.7524 150.489C92.2251 149.859 91.2949 149.544 89.9619 149.544C88.0576 149.544 86.7393 150.452 86.0068 152.269L86.0288 168.594H79.6787V153.455C79.6787 152.078 79.4077 151.082 78.8657 150.467C78.3237 149.852 77.4009 149.544 76.0972 149.544C74.2954 149.544 72.9917 150.291 72.186 151.785V168.594H65.8359V144.82H71.7905ZM118.592 168.594C118.299 168.023 118.087 167.312 117.955 166.463C116.417 168.177 114.417 169.034 111.957 169.034C109.627 169.034 107.694 168.36 106.156 167.012C104.632 165.665 103.871 163.965 103.871 161.915C103.871 159.395 104.801 157.461 106.661 156.114C108.536 154.766 111.239 154.085 114.769 154.07H117.691V152.708C117.691 151.609 117.406 150.73 116.834 150.071C116.278 149.412 115.392 149.083 114.176 149.083C113.106 149.083 112.264 149.339 111.649 149.852C111.048 150.364 110.748 151.067 110.748 151.961H104.398C104.398 150.584 104.823 149.31 105.672 148.138C106.522 146.966 107.723 146.05 109.276 145.391C110.829 144.717 112.572 144.38 114.505 144.38C117.435 144.38 119.757 145.12 121.471 146.6C123.199 148.064 124.063 150.13 124.063 152.796V163.101C124.078 165.357 124.393 167.063 125.008 168.221V168.594H118.592ZM113.341 164.178C114.278 164.178 115.143 163.973 115.934 163.562C116.725 163.138 117.311 162.574 117.691 161.871V157.784H115.318C112.14 157.784 110.448 158.882 110.243 161.08L110.221 161.453C110.221 162.244 110.499 162.896 111.056 163.409C111.612 163.921 112.374 164.178 113.341 164.178ZM128.019 156.531C128.019 152.884 128.883 149.947 130.611 147.72C132.354 145.494 134.698 144.38 137.643 144.38C140.25 144.38 142.279 145.274 143.729 147.061L143.993 144.82H149.75V167.803C149.75 169.883 149.273 171.692 148.321 173.23C147.384 174.769 146.058 175.94 144.344 176.746C142.63 177.552 140.624 177.955 138.324 177.955C136.581 177.955 134.881 177.603 133.226 176.9C131.571 176.211 130.318 175.318 129.469 174.219L132.281 170.352C133.863 172.125 135.782 173.011 138.038 173.011C139.723 173.011 141.034 172.557 141.971 171.648C142.909 170.755 143.377 169.48 143.377 167.825V166.551C141.913 168.206 139.986 169.034 137.599 169.034C134.742 169.034 132.428 167.92 130.655 165.694C128.897 163.453 128.019 160.486 128.019 156.795V156.531ZM134.369 156.993C134.369 159.146 134.801 160.838 135.665 162.068C136.529 163.284 137.716 163.892 139.225 163.892C141.158 163.892 142.542 163.167 143.377 161.717V151.719C142.528 150.269 141.158 149.544 139.269 149.544C137.745 149.544 136.544 150.167 135.665 151.412C134.801 152.657 134.369 154.517 134.369 156.993ZM165.592 169.034C162.105 169.034 159.264 167.964 157.066 165.826C154.884 163.687 153.792 160.838 153.792 157.278V156.663C153.792 154.275 154.254 152.144 155.177 150.269C156.1 148.379 157.403 146.929 159.088 145.918C160.787 144.893 162.721 144.38 164.889 144.38C168.141 144.38 170.697 145.406 172.557 147.457C174.432 149.507 175.37 152.415 175.37 156.18V158.772H160.23C160.436 160.325 161.051 161.57 162.076 162.508C163.116 163.445 164.427 163.914 166.009 163.914C168.456 163.914 170.367 163.028 171.744 161.255L174.864 164.749C173.912 166.097 172.623 167.151 170.997 167.913C169.371 168.66 167.569 169.034 165.592 169.034ZM164.867 149.522C163.607 149.522 162.582 149.947 161.791 150.796C161.014 151.646 160.516 152.862 160.296 154.444H169.129V153.938C169.1 152.532 168.719 151.448 167.987 150.687C167.254 149.91 166.214 149.522 164.867 149.522Z" fill="black"/>
</svg>
