<svg width="140" height="140" viewBox="0 0 140 140" fill="none" xmlns="http://www.w3.org/2000/svg">
<circle cx="70" cy="70" r="67.5" fill="white" stroke="black" stroke-width="5"/>
<path d="M29.4551 79.7046H43.4517V85H22.8633V53.0078H29.4551V79.7046ZM45.8467 72.8931C45.8467 70.5347 46.3008 68.4326 47.209 66.5869C48.1172 64.7412 49.4209 63.313 51.1201 62.3022C52.834 61.2915 54.8188 60.7861 57.0747 60.7861C60.2827 60.7861 62.8975 61.7676 64.9189 63.7305C66.9551 65.6934 68.0903 68.3594 68.3247 71.7285L68.3687 73.3545C68.3687 77.002 67.3506 79.9316 65.3145 82.1436C63.2783 84.3408 60.5464 85.4395 57.1187 85.4395C53.6909 85.4395 50.9517 84.3408 48.9009 82.1436C46.8647 79.9463 45.8467 76.958 45.8467 73.1787V72.8931ZM52.1968 73.3545C52.1968 75.6104 52.6216 77.3389 53.4712 78.54C54.3208 79.7266 55.5366 80.3198 57.1187 80.3198C58.6567 80.3198 59.8579 79.7339 60.7222 78.562C61.5864 77.3755 62.0186 75.4858 62.0186 72.8931C62.0186 70.6812 61.5864 68.9673 60.7222 67.7515C59.8579 66.5356 58.6421 65.9277 57.0747 65.9277C55.522 65.9277 54.3208 66.5356 53.4712 67.7515C52.6216 68.9526 52.1968 70.8203 52.1968 73.3545ZM71.3569 72.937C71.3569 69.2896 72.2212 66.3525 73.9497 64.126C75.6929 61.8994 78.0366 60.7861 80.981 60.7861C83.5884 60.7861 85.6172 61.6797 87.0674 63.4668L87.3311 61.2256H93.0879V84.209C93.0879 86.2891 92.6118 88.0981 91.6597 89.6362C90.7222 91.1743 89.3965 92.3462 87.6826 93.1519C85.9688 93.9575 83.9619 94.3604 81.6621 94.3604C79.9189 94.3604 78.2197 94.0088 76.5645 93.3057C74.9092 92.6172 73.6567 91.7236 72.8071 90.625L75.6196 86.7578C77.2017 88.5303 79.1206 89.4165 81.3765 89.4165C83.061 89.4165 84.3721 88.9624 85.3096 88.0542C86.2471 87.1606 86.7158 85.8862 86.7158 84.231V82.9565C85.251 84.6118 83.3247 85.4395 80.937 85.4395C78.0806 85.4395 75.7661 84.3262 73.9937 82.0996C72.2358 79.8584 71.3569 76.8921 71.3569 73.2007V72.937ZM77.707 73.3984C77.707 75.5518 78.1392 77.2437 79.0034 78.4741C79.8677 79.6899 81.0542 80.2979 82.563 80.2979C84.4966 80.2979 85.8809 79.5728 86.7158 78.1226V68.125C85.8662 66.6748 84.4966 65.9497 82.6069 65.9497C81.0835 65.9497 79.8823 66.5723 79.0034 67.8174C78.1392 69.0625 77.707 70.9229 77.707 73.3984ZM96.999 72.8931C96.999 70.5347 97.4531 68.4326 98.3613 66.5869C99.2695 64.7412 100.573 63.313 102.272 62.3022C103.986 61.2915 105.971 60.7861 108.227 60.7861C111.435 60.7861 114.05 61.7676 116.071 63.7305C118.107 65.6934 119.243 68.3594 119.477 71.7285L119.521 73.3545C119.521 77.002 118.503 79.9316 116.467 82.1436C114.431 84.3408 111.699 85.4395 108.271 85.4395C104.843 85.4395 102.104 84.3408 100.053 82.1436C98.0171 79.9463 96.999 76.958 96.999 73.1787V72.8931ZM103.349 73.3545C103.349 75.6104 103.774 77.3389 104.624 78.54C105.473 79.7266 106.689 80.3198 108.271 80.3198C109.809 80.3198 111.01 79.7339 111.875 78.562C112.739 77.3755 113.171 75.4858 113.171 72.8931C113.171 70.6812 112.739 68.9673 111.875 67.7515C111.01 66.5356 109.794 65.9277 108.227 65.9277C106.674 65.9277 105.473 66.5356 104.624 67.7515C103.774 68.9526 103.349 70.8203 103.349 73.3545Z" fill="black"/>
</svg>
