<svg width="24" height="24" viewBox="0 0 24 24" fill="none" xmlns="http://www.w3.org/2000/svg">
<path fill-rule="evenodd" clip-rule="evenodd" d="M8.5 1.5H10V4.5H11.5V1.5H13V4.5H14.5V1.5H16V4.5H16.5C18.1569 4.5 19.5 5.84315 19.5 7.5V8.5H22.5V10H19.5V11.5H22.5V13H19.5V14.5H22.5V16H19.5V16.5C19.5 18.1569 18.1569 19.5 16.5 19.5H16V22.5H14.5V19.5H13V22.5H11.5V19.5H10V22.5H8.5V19.5H7.5C5.84315 19.5 4.5 18.1569 4.5 16.5V16H1.5V14.5H4.5V13H1.5V11.5H4.5V10H1.5V8.5H4.5V7.5C4.5 5.84315 5.84315 4.5 7.5 4.5H8.5V1.5ZM7.5 6H16.5C17.3284 6 18 6.67157 18 7.5V16.5C18 17.3284 17.3284 18 16.5 18H7.5C6.67157 18 6 17.3284 6 16.5V7.5C6 6.67157 6.67157 6 7.5 6ZM10 9H14C14.5523 9 15 9.44772 15 10V14C15 14.5523 14.5523 15 14 15H10C9.44772 15 9 14.5523 9 14V10C9 9.44772 9.44772 9 10 9ZM7.5 10C7.5 8.61929 8.61929 7.5 10 7.5H14C15.3807 7.5 16.5 8.61929 16.5 10V14C16.5 15.3807 15.3807 16.5 14 16.5H10C8.61929 16.5 7.5 15.3807 7.5 14V10Z" fill="white"/>
</svg>
