<svg viewBox="0 0 24 24" fill="none" xmlns="http://www.w3.org/2000/svg">
<path fill-rule="evenodd" clip-rule="evenodd" d="M17.5 6.5H6.5V17.5H17.5V6.5ZM6.5 4.5C5.39543 4.5 4.5 5.39543 4.5 6.5V17.5C4.5 18.6046 5.39543 19.5 6.5 19.5H17.5C18.6046 19.5 19.5 18.6046 19.5 17.5V6.5C19.5 5.39543 18.6046 4.5 17.5 4.5H6.5Z" fill="white"/>
<path fill-rule="evenodd" clip-rule="evenodd" d="M10.5 10.5V13.5H13.5V10.5H10.5ZM9 8.5C8.72386 8.5 8.5 8.72386 8.5 9V15C8.5 15.2761 8.72386 15.5 9 15.5H15C15.2761 15.5 15.5 15.2761 15.5 15V9C15.5 8.72386 15.2761 8.5 15 8.5H9Z" fill="white"/>
<path d="M7 2H9V6H7V2Z" fill="white"/>
<path d="M7 18H9V22H7V18Z" fill="white"/>
<path d="M11 2H13V6H11V2Z" fill="white"/>
<path d="M11 18H13V22H11V18Z" fill="white"/>
<path d="M15 2H17V6H15V2Z" fill="white"/>
<path d="M15 18H17V22H15V18Z" fill="white"/>
<path d="M18 15H22V17H18V15Z" fill="white"/>
<path d="M2 15H6V17H2V15Z" fill="white"/>
<path d="M18 11H22V13H18V11Z" fill="white"/>
<path d="M2 11H6V13H2V11Z" fill="white"/>
<path d="M18 7H22V9H18V7Z" fill="white"/>
<path d="M2 7H6V9H2V7Z" fill="white"/>
</svg>
