<svg width="24" height="24" viewBox="0 0 24 24" fill="none" xmlns="http://www.w3.org/2000/svg">
<path fill-rule="evenodd" clip-rule="evenodd" d="M17.5 6.5H6.5V17.5H17.5V6.5ZM6.5 4.5C5.39543 4.5 4.5 5.39543 4.5 6.5V17.5C4.5 18.6046 5.39543 19.5 6.5 19.5H17.5C18.6046 19.5 19.5 18.6046 19.5 17.5V6.5C19.5 5.39543 18.6046 4.5 17.5 4.5H6.5Z"/>
<path fill-rule="evenodd" clip-rule="evenodd" d="M10.5 10.5V13.5H13.5V10.5H10.5ZM9 8.5C8.72386 8.5 8.5 8.72386 8.5 9V15C8.5 15.2761 8.72386 15.5 9 15.5H15C15.2761 15.5 15.5 15.2761 15.5 15V9C15.5 8.72386 15.2761 8.5 15 8.5H9Z"/>
<path d="M7 2H9V4.5H7V2Z"/>
<path d="M7 19.5H9V22H7V19.5Z"/>
<path d="M11 2H13V4.5H11V2Z"/>
<path d="M11 19.5H13V22H11V19.5Z"/>
<path d="M15 2H17V4.5H15V2Z"/>
<path d="M15 19.5H17V22H15V19.5Z"/>
<path d="M19.5 15H22V17H19.5V15Z"/>
<path d="M2 15H4.5V17H2V15Z"/>
<path d="M19.5 11H22V13H19.5V11Z"/>
<path d="M2 11H4.5V13H2V11Z"/>
<path d="M19.5 7H22V9H19.5V7Z"/>
<path d="M2 7H4.5V9H2V7Z"/>
</svg>
