<svg xmlns="http://www.w3.org/2000/svg" viewBox="0 0 500 500"><g id="freepik--background-simple--inject-83"><path d="M433.13,122.56S347.85,44.07,265.48,38.25,96.87,54.73,62,102.21,54.23,241.75,45.51,288.27,19.34,421,80.39,455.91s139.51,15.73,186.39-30.38,122.74-21.94,164.41-63.61S501,181.67,433.13,122.56Z" style="fill:#2B7BBC"></path><path d="M433.13,122.56S347.85,44.07,265.48,38.25,96.87,54.73,62,102.21,54.23,241.75,45.51,288.27,19.34,421,80.39,455.91s139.51,15.73,186.39-30.38,122.74-21.94,164.41-63.61S501,181.67,433.13,122.56Z" style="fill:#fff;opacity:0.7000000000000001"></path></g><g id="freepik--Lines--inject-83"><g style="opacity:0.1"><path d="M134.31,26.88V44.19H50V58.9H99.51V57H51.93V46.13h84.32V26.88a3,3,0,1,0-1.94,0Z"></path><path d="M33,105.64a3,3,0,1,0-4.06,2.76v37.49L59.55,172h41.88V170H60.88V122.5a3,3,0,1,0-1.94.26V168.9L45.55,157.5V115.67a3,3,0,1,0-1.94,0v40.18L30.86,145V108.48A3,3,0,0,0,33,105.64Z"></path><path d="M30.13,186.66H99.51v-1.94H30.13a3,3,0,1,0,0,1.94Z"></path><path d="M32.13,355.64V251.22l47.36-50.51h22.58v-1.94H78.65L30.19,250.46v105a3,3,0,1,0,1.94.2Z"></path><path d="M43,356.21V256.32L79.5,216h22.57V214.1H78.64L41.05,255.58V356.21a3,3,0,0,0,0,5.6V362H43v-.17a3,3,0,0,0,0-5.6Z"></path><path d="M103.65,414.35v-67h-11a3,3,0,0,0-5.77,0H69.74V266h47.48V264H67.8v85.28H87a3,3,0,0,0,5.38,0h9.3v38.76H53.26v49.53a3,3,0,1,0,1.94,0V390h46.51v24.33a3,3,0,1,0,1.94,0Z"></path><path d="M268.39,354.27V306.68h-1.94v47.59a3,3,0,1,0,1.94,0Z"></path><path d="M285.83,354.14V306.68H283.9v47.85a3,3,0,1,0,1.93-.39Z"></path><path d="M472.86,99.79a3,3,0,1,0,.25-1.93H441.94l-21.8,21.79h-.58v.58L398.82,141H369.17V42.13h69.77V61.51h34a3,3,0,1,0,.12-1.94H440.88V40.19H367.23V50.85h-30V28.64a3,3,0,1,0-1.93,0V52.79h32v90.12h29.66l-23.27,23.27H233.89L205.8,138.09H79.4V64.63H36V36.55h65.84a3,3,0,1,0-.19-1.94H34v32H77.46V100.4H66.06L48.17,82.52H25.78a3,3,0,1,0-.2,1.93H47.37l17.89,17.89h12.2V140H205l28.09,28.09H452.51v40.69h-42a3,3,0,1,0,.37,1.93h41.65V235H410.73a3,3,0,1,0,0,1.94h41.78V270.6a3,3,0,0,0-2.62,2.16H410.84v48.46h1.94V274.7H450a3,3,0,1,0,4.44-3.58V166.18H376.36l23.27-23.27H473a3,3,0,1,0,0-1.94H401.56L421,121.59H473a3,3,0,1,0-.12-1.94h-50l19.86-19.86Z"></path><path d="M160.83,349.32H138.54v30.15a3,3,0,1,0,1.94,0V351.26h22.28V304.74h-1.93Z"></path><path d="M467.05,165.2a6.79,6.79,0,1,0,6.78,6.78A6.79,6.79,0,0,0,467.05,165.2Zm0,11.63a4.85,4.85,0,1,1,4.84-4.85A4.86,4.86,0,0,1,467.05,176.83Z"></path><path d="M69.74,243.69a6.78,6.78,0,1,0,6.78-6.78A6.79,6.79,0,0,0,69.74,243.69Zm11.62,0a4.85,4.85,0,1,1-4.84-4.84A4.85,4.85,0,0,1,81.36,243.69Z"></path><path d="M171.49,38.25a6.78,6.78,0,1,0-6.79-6.78A6.79,6.79,0,0,0,171.49,38.25Zm0-11.63a4.85,4.85,0,1,1-4.85,4.85A4.85,4.85,0,0,1,171.49,26.62Z"></path><path d="M210.25,38.25a6.78,6.78,0,1,0-6.79-6.78A6.79,6.79,0,0,0,210.25,38.25Zm0-11.63a4.85,4.85,0,1,1-4.85,4.85A4.85,4.85,0,0,1,210.25,26.62Z"></path><path d="M78.46,428.78a6.79,6.79,0,1,0,6.78,6.78A6.79,6.79,0,0,0,78.46,428.78Zm0,11.63a4.85,4.85,0,1,1,4.84-4.85A4.85,4.85,0,0,1,78.46,440.41Z"></path><path d="M122.06,346.41a6.79,6.79,0,1,0,6.79,6.78A6.79,6.79,0,0,0,122.06,346.41Zm0,11.63a4.85,4.85,0,1,1,4.85-4.85A4.85,4.85,0,0,1,122.06,358Z"></path><path d="M467.05,250.48a6.78,6.78,0,1,0,6.78,6.78A6.79,6.79,0,0,0,467.05,250.48Zm0,11.62a4.85,4.85,0,1,1,4.84-4.84A4.85,4.85,0,0,1,467.05,262.1Z"></path></g></g><g id="freepik--circuit-board--inject-83"><rect x="93.63" y="51.27" width="305.1" height="277.14" style="fill:#2B7BBC"></rect><rect x="93.63" y="51.27" width="305.1" height="277.14" style="opacity:0.15"></rect><path d="M399.23,328.91H93.13V50.77h306.1Zm-305.1-1h304.1V51.77H94.13Z" style="fill:#263238"></path><path d="M390.52,198.63V123.44h-49.7V51.27H93.63V328.41H340.82v-7.05h27.23V293.71h21.6V235.8H366.32V198.63ZM381,132.94v19H340.82v-19Zm-.86,112.36v38.9H358.54v27.66H340.82V161.47H381v27.65h-24.2V245.3Z" style="fill:#2B7BBC"></path><path d="M341.32,328.91H93.13V50.77H341.32v72.17H391v76.19h-24.2V235.3h23.33v58.91h-21.6v27.65H341.32Zm-247.19-1H340.32v-7.05h27.23V293.21h21.6V236.3H365.82V198.13H390V123.94h-49.7V51.77H94.13ZM359,312.36H340.32V161h41.19v28.65h-24.2V244.8h23.34v39.9H359Zm-17.72-1H358V283.7h21.61V245.8H356.31V188.62h24.2V162H341.32Zm40.19-158.9H340.32v-20h41.19Zm-40.19-1h39.19v-18H341.32Z" style="fill:#263238"></path><path d="M108.31,88.14a2.07,2.07,0,1,0-2.06,2.07A2.06,2.06,0,0,0,108.31,88.14Z" style="fill:#263238"></path><path d="M140.51,88.14a2.06,2.06,0,1,0-2.06,2.07A2.06,2.06,0,0,0,140.51,88.14Z" style="fill:#263238"></path><path d="M172.71,88.14a2.06,2.06,0,1,0-2.06,2.07A2.06,2.06,0,0,0,172.71,88.14Z" style="fill:#263238"></path><path d="M204.91,88.14a2.06,2.06,0,1,0-2.06,2.07A2.06,2.06,0,0,0,204.91,88.14Z" style="fill:#263238"></path><path d="M237.12,88.14a2.07,2.07,0,1,0-2.07,2.07A2.07,2.07,0,0,0,237.12,88.14Z" style="fill:#263238"></path><path d="M269.32,88.14a2.07,2.07,0,1,0-2.07,2.07A2.07,2.07,0,0,0,269.32,88.14Z" style="fill:#263238"></path><path d="M301.52,88.14a2.07,2.07,0,1,0-2.07,2.07A2.07,2.07,0,0,0,301.52,88.14Z" style="fill:#263238"></path><path d="M333.72,88.14a2.07,2.07,0,1,0-2.06,2.07A2.06,2.06,0,0,0,333.72,88.14Z" style="fill:#263238"></path><path d="M108.31,119.42a2.07,2.07,0,1,0-2.06,2.06A2.07,2.07,0,0,0,108.31,119.42Z" style="fill:#263238"></path><circle cx="138.45" cy="119.42" r="2.06" style="fill:#263238"></circle><circle cx="170.65" cy="119.42" r="2.06" style="fill:#263238"></circle><path d="M204.91,119.42a2.06,2.06,0,1,0-2.06,2.06A2.07,2.07,0,0,0,204.91,119.42Z" style="fill:#263238"></path><path d="M237.12,119.42a2.07,2.07,0,1,0-2.07,2.06A2.07,2.07,0,0,0,237.12,119.42Z" style="fill:#263238"></path><circle cx="267.25" cy="119.42" r="2.06" style="fill:#263238"></circle><circle cx="299.45" cy="119.42" r="2.06" style="fill:#263238"></circle><path d="M333.72,119.42a2.07,2.07,0,1,0-2.06,2.06A2.07,2.07,0,0,0,333.72,119.42Z" style="fill:#263238"></path><path d="M108.31,150.69a2.07,2.07,0,1,0-2.06,2.06A2.07,2.07,0,0,0,108.31,150.69Z" style="fill:#263238"></path><circle cx="138.45" cy="150.69" r="2.06" style="fill:#263238"></circle><circle cx="170.65" cy="150.69" r="2.06" style="fill:#263238"></circle><path d="M204.91,150.69a2.06,2.06,0,1,0-2.06,2.06A2.07,2.07,0,0,0,204.91,150.69Z" style="fill:#263238"></path><path d="M237.12,150.69a2.07,2.07,0,1,0-2.07,2.06A2.07,2.07,0,0,0,237.12,150.69Z" style="fill:#263238"></path><circle cx="267.25" cy="150.69" r="2.06" style="fill:#263238"></circle><circle cx="299.45" cy="150.69" r="2.06" style="fill:#263238"></circle><path d="M333.72,150.69a2.07,2.07,0,1,0-2.06,2.06A2.07,2.07,0,0,0,333.72,150.69Z" style="fill:#263238"></path><path d="M108.31,182a2.07,2.07,0,1,0-2.06,2.06A2.06,2.06,0,0,0,108.31,182Z" style="fill:#263238"></path><path d="M140.51,182a2.06,2.06,0,1,0-2.06,2.06A2.06,2.06,0,0,0,140.51,182Z" style="fill:#263238"></path><path d="M172.71,182a2.06,2.06,0,1,0-2.06,2.06A2.06,2.06,0,0,0,172.71,182Z" style="fill:#263238"></path><path d="M204.91,182a2.06,2.06,0,1,0-2.06,2.06A2.06,2.06,0,0,0,204.91,182Z" style="fill:#263238"></path><path d="M237.12,182a2.07,2.07,0,1,0-2.07,2.06A2.07,2.07,0,0,0,237.12,182Z" style="fill:#263238"></path><path d="M269.32,182a2.07,2.07,0,1,0-2.07,2.06A2.07,2.07,0,0,0,269.32,182Z" style="fill:#263238"></path><path d="M301.52,182a2.07,2.07,0,1,0-2.07,2.06A2.07,2.07,0,0,0,301.52,182Z" style="fill:#263238"></path><path d="M333.72,182a2.07,2.07,0,1,0-2.06,2.06A2.06,2.06,0,0,0,333.72,182Z" style="fill:#263238"></path><path d="M108.31,213.23a2.07,2.07,0,1,0-2.06,2.07A2.06,2.06,0,0,0,108.31,213.23Z" style="fill:#263238"></path><circle cx="138.45" cy="213.23" r="2.06" style="fill:#263238"></circle><circle cx="170.65" cy="213.23" r="2.06" style="fill:#263238"></circle><path d="M204.91,213.23a2.06,2.06,0,1,0-2.06,2.07A2.06,2.06,0,0,0,204.91,213.23Z" style="fill:#263238"></path><path d="M237.12,213.23a2.07,2.07,0,1,0-2.07,2.07A2.07,2.07,0,0,0,237.12,213.23Z" style="fill:#263238"></path><circle cx="267.25" cy="213.23" r="2.06" style="fill:#263238"></circle><circle cx="299.45" cy="213.23" r="2.06" style="fill:#263238"></circle><path d="M333.72,213.23a2.07,2.07,0,1,0-2.06,2.07A2.06,2.06,0,0,0,333.72,213.23Z" style="fill:#263238"></path><path d="M108.31,244.51a2.07,2.07,0,1,0-2.06,2.06A2.07,2.07,0,0,0,108.31,244.51Z" style="fill:#263238"></path><path d="M140.51,244.51a2.06,2.06,0,1,0-2.06,2.06A2.07,2.07,0,0,0,140.51,244.51Z" style="fill:#263238"></path><path d="M172.71,244.51a2.06,2.06,0,1,0-2.06,2.06A2.07,2.07,0,0,0,172.71,244.51Z" style="fill:#263238"></path><path d="M204.91,244.51a2.06,2.06,0,1,0-2.06,2.06A2.07,2.07,0,0,0,204.91,244.51Z" style="fill:#263238"></path><path d="M237.12,244.51a2.07,2.07,0,1,0-2.07,2.06A2.07,2.07,0,0,0,237.12,244.51Z" style="fill:#263238"></path><path d="M269.32,244.51a2.07,2.07,0,1,0-2.07,2.06A2.07,2.07,0,0,0,269.32,244.51Z" style="fill:#263238"></path><path d="M301.52,244.51a2.07,2.07,0,1,0-2.07,2.06A2.07,2.07,0,0,0,301.52,244.51Z" style="fill:#263238"></path><path d="M333.72,244.51a2.07,2.07,0,1,0-2.06,2.06A2.07,2.07,0,0,0,333.72,244.51Z" style="fill:#263238"></path><path d="M108.31,275.78a2.07,2.07,0,1,0-2.06,2.06A2.06,2.06,0,0,0,108.31,275.78Z" style="fill:#263238"></path><path d="M140.51,275.78a2.06,2.06,0,1,0-2.06,2.06A2.06,2.06,0,0,0,140.51,275.78Z" style="fill:#263238"></path><path d="M172.71,275.78a2.06,2.06,0,1,0-2.06,2.06A2.06,2.06,0,0,0,172.71,275.78Z" style="fill:#263238"></path><path d="M204.91,275.78a2.06,2.06,0,1,0-2.06,2.06A2.06,2.06,0,0,0,204.91,275.78Z" style="fill:#263238"></path><path d="M237.12,275.78a2.07,2.07,0,1,0-2.07,2.06A2.07,2.07,0,0,0,237.12,275.78Z" style="fill:#263238"></path><path d="M269.32,275.78a2.07,2.07,0,1,0-2.07,2.06A2.07,2.07,0,0,0,269.32,275.78Z" style="fill:#263238"></path><path d="M301.52,275.78a2.07,2.07,0,1,0-2.07,2.06A2.07,2.07,0,0,0,301.52,275.78Z" style="fill:#263238"></path><path d="M333.72,275.78a2.07,2.07,0,1,0-2.06,2.06A2.06,2.06,0,0,0,333.72,275.78Z" style="fill:#263238"></path><path d="M108.31,307.05a2.07,2.07,0,1,0-2.06,2.07A2.06,2.06,0,0,0,108.31,307.05Z" style="fill:#263238"></path><circle cx="138.45" cy="307.05" r="2.06" style="fill:#263238"></circle><circle cx="170.65" cy="307.05" r="2.06" style="fill:#263238"></circle><path d="M204.91,307.05a2.06,2.06,0,1,0-2.06,2.07A2.06,2.06,0,0,0,204.91,307.05Z" style="fill:#263238"></path><path d="M237.12,307.05a2.07,2.07,0,1,0-2.07,2.07A2.07,2.07,0,0,0,237.12,307.05Z" style="fill:#263238"></path><circle cx="267.25" cy="307.05" r="2.06" style="fill:#263238"></circle><circle cx="299.45" cy="307.05" r="2.06" style="fill:#263238"></circle><path d="M333.72,307.05a2.07,2.07,0,1,0-2.06,2.07A2.06,2.06,0,0,0,333.72,307.05Z" style="fill:#263238"></path><path d="M129.8,86h0A7.78,7.78,0,0,1,122,78.24V51.44h15.55v26.8A7.78,7.78,0,0,1,129.8,86Z" style="fill:#fff"></path><path d="M129.8,86.52a8.29,8.29,0,0,1-8.27-8.28V50.94h16.55v27.3A8.29,8.29,0,0,1,129.8,86.52Zm-7.27-34.58v26.3a7.28,7.28,0,1,0,14.55,0V51.94Z" style="fill:#263238"></path><path d="M134.61,77.68a4.81,4.81,0,1,0-4.81,4.8A4.81,4.81,0,0,0,134.61,77.68Z" style="fill:#263238"></path><path d="M129.8,83a5.31,5.31,0,1,1,5.31-5.3A5.31,5.31,0,0,1,129.8,83Zm0-9.61a4.31,4.31,0,1,0,4.31,4.31A4.31,4.31,0,0,0,129.8,73.37Z" style="fill:#263238"></path><path d="M149.81,86h0A7.78,7.78,0,0,1,142,78.24V51.44h15.56v26.8A7.79,7.79,0,0,1,149.81,86Z" style="fill:#fff"></path><path d="M149.81,86.52a8.29,8.29,0,0,1-8.28-8.28V50.94h16.56v27.3A8.3,8.3,0,0,1,149.81,86.52Zm-7.28-34.58v26.3a7.28,7.28,0,1,0,14.56,0V51.94Z" style="fill:#263238"></path><path d="M154.61,77.68a4.8,4.8,0,1,0-4.8,4.8A4.8,4.8,0,0,0,154.61,77.68Z" style="fill:#263238"></path><path d="M149.81,83a5.31,5.31,0,1,1,5.3-5.3A5.3,5.3,0,0,1,149.81,83Zm0-9.61a4.31,4.31,0,1,0,4.3,4.31A4.31,4.31,0,0,0,149.81,73.37Z" style="fill:#263238"></path><path d="M169.81,86h0A7.78,7.78,0,0,1,162,78.24V51.44h15.56v26.8A7.78,7.78,0,0,1,169.81,86Z" style="fill:#fff"></path><path d="M169.81,86.52a8.3,8.3,0,0,1-8.28-8.28V50.94h16.56v27.3A8.29,8.29,0,0,1,169.81,86.52Zm-7.28-34.58v26.3a7.28,7.28,0,1,0,14.56,0V51.94Z" style="fill:#263238"></path><path d="M174.61,77.68a4.8,4.8,0,1,0-4.8,4.8A4.8,4.8,0,0,0,174.61,77.68Z" style="fill:#263238"></path><path d="M169.81,83a5.31,5.31,0,1,1,5.3-5.3A5.31,5.31,0,0,1,169.81,83Zm0-9.61a4.31,4.31,0,1,0,4.3,4.31A4.31,4.31,0,0,0,169.81,73.37Z" style="fill:#263238"></path><path d="M182,51.44h15.56a0,0,0,0,1,0,0V78.24A7.78,7.78,0,0,1,189.81,86h0A7.78,7.78,0,0,1,182,78.24V51.44A0,0,0,0,1,182,51.44Z" style="fill:#fff"></path><path d="M189.81,86.52a8.3,8.3,0,0,1-8.28-8.28V50.94h16.56v27.3A8.29,8.29,0,0,1,189.81,86.52Zm-7.28-34.58v26.3a7.28,7.28,0,1,0,14.56,0V51.94Z" style="fill:#263238"></path><path d="M194.61,77.68a4.8,4.8,0,1,0-4.8,4.8A4.8,4.8,0,0,0,194.61,77.68Z" style="fill:#263238"></path><path d="M189.81,83a5.31,5.31,0,1,1,5.3-5.3A5.31,5.31,0,0,1,189.81,83Zm0-9.61a4.31,4.31,0,1,0,4.3,4.31A4.31,4.31,0,0,0,189.81,73.37Z" style="fill:#263238"></path><path d="M209.81,86h0A7.78,7.78,0,0,1,202,78.24V51.44h15.55v26.8A7.78,7.78,0,0,1,209.81,86Z" style="fill:#fff"></path><path d="M209.81,86.52a8.29,8.29,0,0,1-8.27-8.28V50.94h16.55v27.3A8.29,8.29,0,0,1,209.81,86.52Zm-7.27-34.58v26.3a7.28,7.28,0,1,0,14.55,0V51.94Z" style="fill:#263238"></path><path d="M214.62,77.68a4.81,4.81,0,1,0-4.81,4.8A4.81,4.81,0,0,0,214.62,77.68Z" style="fill:#263238"></path><path d="M209.81,83a5.31,5.31,0,1,1,5.31-5.3A5.31,5.31,0,0,1,209.81,83Zm0-9.61a4.31,4.31,0,1,0,4.31,4.31A4.31,4.31,0,0,0,209.81,73.37Z" style="fill:#263238"></path><path d="M229.82,86h0A7.78,7.78,0,0,1,222,78.24V51.44H237.6v26.8A7.79,7.79,0,0,1,229.82,86Z" style="fill:#fff"></path><path d="M229.82,86.52a8.29,8.29,0,0,1-8.28-8.28V50.94H238.1v27.3A8.3,8.3,0,0,1,229.82,86.52Zm-7.28-34.58v26.3a7.28,7.28,0,1,0,14.56,0V51.94Z" style="fill:#263238"></path><path d="M234.62,77.68a4.8,4.8,0,1,0-4.8,4.8A4.8,4.8,0,0,0,234.62,77.68Z" style="fill:#263238"></path><path d="M229.82,83a5.31,5.31,0,1,1,5.3-5.3A5.3,5.3,0,0,1,229.82,83Zm0-9.61a4.31,4.31,0,1,0,4.3,4.31A4.31,4.31,0,0,0,229.82,73.37Z" style="fill:#263238"></path><path d="M249.82,86h0A7.78,7.78,0,0,1,242,78.24V51.44H257.6v26.8A7.78,7.78,0,0,1,249.82,86Z" style="fill:#fff"></path><path d="M249.82,86.52a8.3,8.3,0,0,1-8.28-8.28V50.94H258.1v27.3A8.3,8.3,0,0,1,249.82,86.52Zm-7.28-34.58v26.3a7.28,7.28,0,0,0,14.56,0V51.94Z" style="fill:#263238"></path><path d="M254.62,77.68a4.8,4.8,0,1,0-4.8,4.8A4.8,4.8,0,0,0,254.62,77.68Z" style="fill:#263238"></path><path d="M249.82,83a5.31,5.31,0,1,1,5.3-5.3A5.31,5.31,0,0,1,249.82,83Zm0-9.61a4.31,4.31,0,1,0,4.3,4.31A4.31,4.31,0,0,0,249.82,73.37Z" style="fill:#263238"></path><path d="M269.82,86h0A7.79,7.79,0,0,1,262,78.24V51.44H277.6v26.8A7.78,7.78,0,0,1,269.82,86Z" style="fill:#fff"></path><path d="M269.82,86.52a8.3,8.3,0,0,1-8.28-8.28V50.94H278.1v27.3A8.29,8.29,0,0,1,269.82,86.52Zm-7.28-34.58v26.3a7.28,7.28,0,0,0,14.56,0V51.94Z" style="fill:#263238"></path><path d="M274.62,77.68a4.8,4.8,0,1,0-4.8,4.8A4.8,4.8,0,0,0,274.62,77.68Z" style="fill:#263238"></path><path d="M269.82,83a5.31,5.31,0,1,1,5.3-5.3A5.31,5.31,0,0,1,269.82,83Zm0-9.61a4.31,4.31,0,1,0,4.3,4.31A4.31,4.31,0,0,0,269.82,73.37Z" style="fill:#263238"></path><path d="M282,51.44H297.6a0,0,0,0,1,0,0V78.24A7.78,7.78,0,0,1,289.83,86h0A7.78,7.78,0,0,1,282,78.24V51.44a0,0,0,0,1,0,0Z" style="fill:#fff"></path><path d="M289.83,86.52a8.29,8.29,0,0,1-8.28-8.28V50.94H298.1v27.3A8.29,8.29,0,0,1,289.83,86.52Zm-7.28-34.58v26.3a7.28,7.28,0,1,0,14.55,0V51.94Z" style="fill:#263238"></path><path d="M294.63,77.68a4.81,4.81,0,1,0-4.8,4.8A4.8,4.8,0,0,0,294.63,77.68Z" style="fill:#263238"></path><path d="M289.83,83a5.31,5.31,0,1,1,5.3-5.3A5.31,5.31,0,0,1,289.83,83Zm0-9.61a4.31,4.31,0,1,0,4.3,4.31A4.31,4.31,0,0,0,289.83,73.37Z" style="fill:#263238"></path><path d="M282,293.84H297.6a0,0,0,0,1,0,0v26.79a7.78,7.78,0,0,1-7.78,7.78h0a7.78,7.78,0,0,1-7.78-7.78V293.84a0,0,0,0,1,0,0Z" transform="translate(579.65 622.24) rotate(180)" style="fill:#fff"></path><path d="M298.1,328.91H281.55v-27.3a8.28,8.28,0,0,1,16.55,0Zm-15.55-1H297.1v-26.3a7.28,7.28,0,0,0-14.55,0Z" style="fill:#263238"></path><path d="M285,302.18a4.81,4.81,0,1,0,4.81-4.81A4.8,4.8,0,0,0,285,302.18Z" style="fill:#263238"></path><path d="M289.83,307.48a5.3,5.3,0,1,1,5.3-5.3A5.31,5.31,0,0,1,289.83,307.48Zm0-9.6a4.3,4.3,0,1,0,4.3,4.3A4.3,4.3,0,0,0,289.83,297.88Z" style="fill:#263238"></path><path d="M269.82,293.84h0a7.77,7.77,0,0,1,7.78,7.77v26.8H262v-26.8A7.78,7.78,0,0,1,269.82,293.84Z" style="fill:#fff"></path><path d="M278.1,328.91H261.54v-27.3a8.28,8.28,0,0,1,16.56,0Zm-15.56-1H277.1v-26.3a7.28,7.28,0,0,0-14.56,0Z" style="fill:#263238"></path><path d="M265,302.18a4.8,4.8,0,1,0,4.8-4.81A4.8,4.8,0,0,0,265,302.18Z" style="fill:#263238"></path><path d="M269.82,307.48a5.3,5.3,0,1,1,5.3-5.3A5.31,5.31,0,0,1,269.82,307.48Zm0-9.6a4.3,4.3,0,1,0,4.3,4.3A4.3,4.3,0,0,0,269.82,297.88Z" style="fill:#263238"></path><path d="M249.82,293.84h0a7.77,7.77,0,0,1,7.78,7.77v26.8H242v-26.8A7.77,7.77,0,0,1,249.82,293.84Z" style="fill:#fff"></path><path d="M258.1,328.91H241.54v-27.3a8.28,8.28,0,0,1,16.56,0Zm-15.56-1H257.1v-26.3a7.28,7.28,0,0,0-14.56,0Z" style="fill:#263238"></path><path d="M245,302.18a4.8,4.8,0,1,0,4.8-4.81A4.8,4.8,0,0,0,245,302.18Z" style="fill:#263238"></path><path d="M249.82,307.48a5.3,5.3,0,1,1,5.3-5.3A5.31,5.31,0,0,1,249.82,307.48Zm0-9.6a4.3,4.3,0,1,0,4.3,4.3A4.3,4.3,0,0,0,249.82,297.88Z" style="fill:#263238"></path><path d="M229.82,293.84h0a7.78,7.78,0,0,1,7.78,7.77v26.8H222v-26.8A7.77,7.77,0,0,1,229.82,293.84Z" style="fill:#fff"></path><path d="M238.1,328.91H221.54v-27.3a8.28,8.28,0,0,1,16.56,0Zm-15.56-1H237.1v-26.3a7.28,7.28,0,0,0-14.56,0Z" style="fill:#263238"></path><path d="M225,302.18a4.8,4.8,0,1,0,4.8-4.81A4.8,4.8,0,0,0,225,302.18Z" style="fill:#263238"></path><path d="M229.82,307.48a5.3,5.3,0,1,1,5.3-5.3A5.3,5.3,0,0,1,229.82,307.48Zm0-9.6a4.3,4.3,0,1,0,4.3,4.3A4.3,4.3,0,0,0,229.82,297.88Z" style="fill:#263238"></path><path d="M209.81,293.84h0a7.77,7.77,0,0,1,7.78,7.77v26.8H202v-26.8A7.77,7.77,0,0,1,209.81,293.84Z" style="fill:#fff"></path><path d="M218.09,328.91H201.54v-27.3a8.28,8.28,0,0,1,16.55,0Zm-15.55-1h14.55v-26.3a7.28,7.28,0,0,0-14.55,0Z" style="fill:#263238"></path><path d="M205,302.18a4.81,4.81,0,1,0,4.8-4.81A4.8,4.8,0,0,0,205,302.18Z" style="fill:#263238"></path><path d="M209.81,307.48a5.3,5.3,0,1,1,5.31-5.3A5.31,5.31,0,0,1,209.81,307.48Zm0-9.6a4.3,4.3,0,1,0,4.31,4.3A4.3,4.3,0,0,0,209.81,297.88Z" style="fill:#263238"></path><path d="M182,293.84h15.56a0,0,0,0,1,0,0v26.79a7.78,7.78,0,0,1-7.78,7.78h0a7.78,7.78,0,0,1-7.78-7.78V293.84A0,0,0,0,1,182,293.84Z" transform="translate(379.62 622.24) rotate(-180)" style="fill:#fff"></path><path d="M198.09,328.91H181.53v-27.3a8.28,8.28,0,0,1,16.56,0Zm-15.56-1h14.56v-26.3a7.28,7.28,0,0,0-14.56,0Z" style="fill:#263238"></path><path d="M185,302.18a4.8,4.8,0,1,0,4.8-4.81A4.8,4.8,0,0,0,185,302.18Z" style="fill:#263238"></path><path d="M189.81,307.48a5.3,5.3,0,1,1,5.3-5.3A5.31,5.31,0,0,1,189.81,307.48Zm0-9.6a4.3,4.3,0,1,0,4.3,4.3A4.3,4.3,0,0,0,189.81,297.88Z" style="fill:#263238"></path><path d="M169.81,293.84h0a7.77,7.77,0,0,1,7.78,7.77v26.8H162v-26.8A7.77,7.77,0,0,1,169.81,293.84Z" style="fill:#fff"></path><path d="M178.09,328.91H161.53v-27.3a8.28,8.28,0,0,1,16.56,0Zm-15.56-1h14.56v-26.3a7.28,7.28,0,0,0-14.56,0Z" style="fill:#263238"></path><path d="M165,302.18a4.8,4.8,0,1,0,4.8-4.81A4.8,4.8,0,0,0,165,302.18Z" style="fill:#263238"></path><path d="M169.81,307.48a5.3,5.3,0,1,1,5.3-5.3A5.31,5.31,0,0,1,169.81,307.48Zm0-9.6a4.3,4.3,0,1,0,4.3,4.3A4.3,4.3,0,0,0,169.81,297.88Z" style="fill:#263238"></path><path d="M149.81,293.84h0a7.78,7.78,0,0,1,7.78,7.77v26.8H142v-26.8A7.77,7.77,0,0,1,149.81,293.84Z" style="fill:#fff"></path><path d="M158.09,328.91H141.53v-27.3a8.28,8.28,0,0,1,16.56,0Zm-15.56-1h14.56v-26.3a7.28,7.28,0,0,0-14.56,0Z" style="fill:#263238"></path><path d="M145,302.18a4.8,4.8,0,1,0,4.8-4.81A4.8,4.8,0,0,0,145,302.18Z" style="fill:#263238"></path><path d="M149.81,307.48a5.3,5.3,0,1,1,5.3-5.3A5.3,5.3,0,0,1,149.81,307.48Zm0-9.6a4.3,4.3,0,1,0,4.3,4.3A4.3,4.3,0,0,0,149.81,297.88Z" style="fill:#263238"></path><path d="M129.8,293.84h0a7.77,7.77,0,0,1,7.78,7.77v26.8H122v-26.8A7.77,7.77,0,0,1,129.8,293.84Z" style="fill:#fff"></path><path d="M138.08,328.91H121.53v-27.3a8.28,8.28,0,0,1,16.55,0Zm-15.55-1h14.55v-26.3a7.28,7.28,0,0,0-14.55,0Z" style="fill:#263238"></path><path d="M125,302.18a4.81,4.81,0,1,0,4.8-4.81A4.8,4.8,0,0,0,125,302.18Z" style="fill:#263238"></path><path d="M129.8,307.48a5.3,5.3,0,1,1,5.31-5.3A5.31,5.31,0,0,1,129.8,307.48Zm0-9.6a4.3,4.3,0,1,0,4.31,4.3A4.3,4.3,0,0,0,129.8,297.88Z" style="fill:#263238"></path><polygon points="206.5 142.77 204.5 142.77 204.5 133.97 199.48 127.67 199.48 120.4 201.48 120.4 201.48 126.97 206.5 133.27 206.5 142.77" style="fill:#263238"></polygon><rect x="248.85" y="104.63" width="2" height="37.19" style="fill:#263238"></rect><rect x="222.14" y="110.5" width="2" height="37.19" style="fill:#263238"></rect><rect x="213.17" y="104.63" width="2" height="37.19" style="fill:#263238"></rect><path d="M204.65,130.86a2.76,2.76,0,1,0,2.76,2.76A2.76,2.76,0,0,0,204.65,130.86Z" style="fill:#263238"></path><path d="M204.65,136.88a3.26,3.26,0,1,1,3.26-3.26A3.26,3.26,0,0,1,204.65,136.88Zm0-5.52a2.26,2.26,0,1,0,2.26,2.26A2.26,2.26,0,0,0,204.65,131.36Z" style="fill:#263238"></path><circle cx="204.65" cy="133.62" r="1.34" style="fill:#fff"></circle><path d="M204.65,135.46a1.84,1.84,0,1,1,1.83-1.84A1.84,1.84,0,0,1,204.65,135.46Zm0-2.68a.84.84,0,0,0,0,1.68.84.84,0,0,0,0-1.68Z" style="fill:#263238"></path><path d="M214.1,101.9a2.76,2.76,0,1,0,2.76,2.76A2.77,2.77,0,0,0,214.1,101.9Z" style="fill:#263238"></path><path d="M214.1,107.92a3.26,3.26,0,1,1,3.26-3.26A3.26,3.26,0,0,1,214.1,107.92Zm0-5.52a2.26,2.26,0,1,0,2.26,2.26A2.26,2.26,0,0,0,214.1,102.4Z" style="fill:#263238"></path><circle cx="214.1" cy="104.66" r="1.34" style="fill:#fff"></circle><path d="M214.1,106.5a1.84,1.84,0,1,1,1.84-1.84A1.84,1.84,0,0,1,214.1,106.5Zm0-2.67a.83.83,0,0,0-.83.83.84.84,0,0,0,.83.84.85.85,0,0,0,.84-.84A.84.84,0,0,0,214.1,103.83Z" style="fill:#263238"></path><path d="M222.91,106.15a2.76,2.76,0,1,0,2.76,2.76A2.76,2.76,0,0,0,222.91,106.15Z" style="fill:#263238"></path><path d="M222.91,112.17a3.26,3.26,0,1,1,3.26-3.26A3.26,3.26,0,0,1,222.91,112.17Zm0-5.52a2.26,2.26,0,1,0,2.26,2.26A2.26,2.26,0,0,0,222.91,106.65Z" style="fill:#263238"></path><circle cx="222.91" cy="108.91" r="1.34" style="fill:#fff"></circle><path d="M222.91,110.75a1.84,1.84,0,1,1,1.83-1.84A1.85,1.85,0,0,1,222.91,110.75Zm0-2.67a.84.84,0,0,0-.84.83.85.85,0,0,0,.84.84.84.84,0,0,0,.83-.84A.83.83,0,0,0,222.91,108.08Z" style="fill:#263238"></path><path d="M232,100.53a2.76,2.76,0,1,0,2.76,2.76A2.77,2.77,0,0,0,232,100.53Z" style="fill:#263238"></path><path d="M232,106.55a3.26,3.26,0,1,1,3.26-3.26A3.26,3.26,0,0,1,232,106.55Zm0-5.52a2.26,2.26,0,1,0,2.26,2.26A2.26,2.26,0,0,0,232,101Z" style="fill:#263238"></path><circle cx="232.01" cy="103.29" r="1.34" style="fill:#fff"></circle><path d="M232,105.13a1.84,1.84,0,1,1,1.84-1.84A1.85,1.85,0,0,1,232,105.13Zm0-2.67a.84.84,0,0,0-.84.83.84.84,0,1,0,1.68,0A.84.84,0,0,0,232,102.46Z" style="fill:#263238"></path><path d="M240.69,106.15a2.76,2.76,0,1,0,2.76,2.76A2.77,2.77,0,0,0,240.69,106.15Z" style="fill:#263238"></path><path d="M240.69,112.17a3.26,3.26,0,1,1,3.26-3.26A3.26,3.26,0,0,1,240.69,112.17Zm0-5.52a2.26,2.26,0,1,0,2.26,2.26A2.27,2.27,0,0,0,240.69,106.65Z" style="fill:#263238"></path><circle cx="240.69" cy="108.91" r="1.34" style="fill:#fff"></circle><path d="M240.69,110.75a1.84,1.84,0,1,1,1.84-1.84A1.84,1.84,0,0,1,240.69,110.75Zm0-2.67a.83.83,0,0,0-.83.83.84.84,0,0,0,.83.84.85.85,0,0,0,.84-.84A.84.84,0,0,0,240.69,108.08Z" style="fill:#263238"></path><path d="M249.79,100.53a2.76,2.76,0,1,0,2.76,2.76A2.77,2.77,0,0,0,249.79,100.53Z" style="fill:#263238"></path><path d="M249.79,106.55a3.26,3.26,0,1,1,3.26-3.26A3.27,3.27,0,0,1,249.79,106.55Zm0-5.52a2.26,2.26,0,1,0,2.26,2.26A2.27,2.27,0,0,0,249.79,101Z" style="fill:#263238"></path><circle cx="249.79" cy="103.29" r="1.34" style="fill:#fff"></circle><path d="M249.79,105.13a1.84,1.84,0,1,1,1.84-1.84A1.84,1.84,0,0,1,249.79,105.13Zm0-2.67a.83.83,0,0,0-.83.83.84.84,0,0,0,.83.84.85.85,0,0,0,.84-.84A.84.84,0,0,0,249.79,102.46Z" style="fill:#263238"></path><rect x="239.98" y="110.5" width="2" height="37.19" style="fill:#263238"></rect><rect x="231.01" y="104.63" width="2" height="37.19" style="fill:#263238"></rect><rect x="248.85" y="222.77" width="2" height="37.19" style="fill:#263238"></rect><rect x="222.14" y="216.9" width="2" height="37.19" style="fill:#263238"></rect><rect x="213.17" y="222.77" width="2" height="37.19" style="fill:#263238"></rect><path d="M214.1,262.69a2.76,2.76,0,1,1,2.76-2.76A2.76,2.76,0,0,1,214.1,262.69Z" style="fill:#263238"></path><path d="M214.1,263.19a3.26,3.26,0,1,1,3.26-3.26A3.26,3.26,0,0,1,214.1,263.19Zm0-5.52a2.26,2.26,0,1,0,2.26,2.26A2.26,2.26,0,0,0,214.1,257.67Z" style="fill:#263238"></path><circle cx="214.1" cy="259.93" r="1.34" style="fill:#fff"></circle><path d="M214.1,261.77a1.84,1.84,0,1,1,1.84-1.84A1.84,1.84,0,0,1,214.1,261.77Zm0-2.67a.83.83,0,0,0-.83.83.84.84,0,0,0,.83.84.85.85,0,0,0,.84-.84A.84.84,0,0,0,214.1,259.1Z" style="fill:#263238"></path><rect x="204.8" y="222.77" width="2" height="23.97" style="fill:#263238"></rect><path d="M206.16,249.44a2.76,2.76,0,1,1,2.29-2.29A2.76,2.76,0,0,1,206.16,249.44Z" style="fill:#263238"></path><path d="M205.72,250a3.23,3.23,0,0,1-2.3-.95,3.26,3.26,0,0,1,1.79-5.53,3.26,3.26,0,0,1,1,6.44h0A3.12,3.12,0,0,1,205.72,250Zm0-5.52-.36,0a2.28,2.28,0,0,0-1.87,1.87,2.26,2.26,0,0,0,2.59,2.59,2.28,2.28,0,0,0,1.88-1.87,2.27,2.27,0,0,0-2.24-2.62Z" style="fill:#263238"></path><path d="M206.06,245.42a1.34,1.34,0,1,0,1,1A1.32,1.32,0,0,0,206.06,245.42Z" style="fill:#fff"></path><path d="M205.72,248.55a1.67,1.67,0,0,1-.44-.06,1.81,1.81,0,0,1-1.34-1.33,1.84,1.84,0,0,1,2.23-2.23h0a1.83,1.83,0,0,1,1.34,1.33A1.85,1.85,0,0,1,207,248,1.82,1.82,0,0,1,205.72,248.55Zm0-2.67a.82.82,0,0,0-.8,1.05.8.8,0,0,0,.59.59.84.84,0,0,0,.8-.22.79.79,0,0,0,.22-.8.82.82,0,0,0-.59-.6h0A.82.82,0,0,0,205.72,245.88Z" style="fill:#263238"></path><rect x="195.56" y="222.77" width="2" height="27.52" style="fill:#263238"></rect><path d="M196.93,240.39a2.76,2.76,0,1,1,2.29-2.29A2.75,2.75,0,0,1,196.93,240.39Z" style="fill:#263238"></path><path d="M196.49,240.93a3.27,3.27,0,0,1-3.22-3.77,3.26,3.26,0,1,1,3.73,3.73h0A4.38,4.38,0,0,1,196.49,240.93Zm0-5.52a2.19,2.19,0,0,0-.36,0,2.26,2.26,0,1,0,.72,4.46h0a2.27,2.27,0,0,0,1.87-1.87,2.25,2.25,0,0,0-2.23-2.62Z" style="fill:#263238"></path><path d="M196.82,236.37A1.34,1.34,0,0,0,195.2,238a1.3,1.3,0,0,0,1,1,1.34,1.34,0,1,0,.66-2.59Z" style="fill:#fff"></path><path d="M196.49,239.5a2.3,2.3,0,0,1-.45-.05,1.83,1.83,0,0,1-1.33-1.33,1.87,1.87,0,0,1,.48-1.75,1.82,1.82,0,0,1,1.75-.48h0a1.8,1.8,0,0,1,1.33,1.33,1.82,1.82,0,0,1-.48,1.75A1.86,1.86,0,0,1,196.49,239.5Zm0-2.67a.84.84,0,1,0,.59,1.43.85.85,0,0,0,.22-.81.84.84,0,0,0-.59-.59h0Z" style="fill:#263238"></path><path d="M222.91,258.44a2.76,2.76,0,1,1,2.76-2.76A2.75,2.75,0,0,1,222.91,258.44Z" style="fill:#263238"></path><path d="M222.91,258.94a3.26,3.26,0,1,1,3.26-3.26A3.26,3.26,0,0,1,222.91,258.94Zm0-5.52a2.26,2.26,0,1,0,2.26,2.26A2.26,2.26,0,0,0,222.91,253.42Z" style="fill:#263238"></path><circle cx="222.91" cy="255.68" r="1.34" style="fill:#fff"></circle><path d="M222.91,257.52a1.84,1.84,0,1,1,1.83-1.84A1.85,1.85,0,0,1,222.91,257.52Zm0-2.67a.84.84,0,0,0-.84.83.85.85,0,0,0,.84.84.84.84,0,0,0,.83-.84A.83.83,0,0,0,222.91,254.85Z" style="fill:#263238"></path><path d="M232,264.06a2.76,2.76,0,1,1,2.76-2.76A2.76,2.76,0,0,1,232,264.06Z" style="fill:#263238"></path><path d="M232,264.56a3.26,3.26,0,1,1,3.26-3.26A3.26,3.26,0,0,1,232,264.56Zm0-5.52a2.26,2.26,0,1,0,2.26,2.26A2.26,2.26,0,0,0,232,259Z" style="fill:#263238"></path><circle cx="232.01" cy="261.3" r="1.34" style="fill:#fff"></circle><path d="M232,263.14a1.84,1.84,0,1,1,1.84-1.84A1.85,1.85,0,0,1,232,263.14Zm0-2.67a.84.84,0,0,0-.84.83.84.84,0,0,0,1.68,0A.84.84,0,0,0,232,260.47Z" style="fill:#263238"></path><path d="M240.69,258.44a2.76,2.76,0,1,1,2.76-2.76A2.76,2.76,0,0,1,240.69,258.44Z" style="fill:#263238"></path><path d="M240.69,258.94a3.26,3.26,0,1,1,3.26-3.26A3.26,3.26,0,0,1,240.69,258.94Zm0-5.52a2.26,2.26,0,1,0,2.26,2.26A2.27,2.27,0,0,0,240.69,253.42Z" style="fill:#263238"></path><circle cx="240.69" cy="255.68" r="1.34" style="fill:#fff"></circle><path d="M240.69,257.52a1.84,1.84,0,1,1,1.84-1.84A1.84,1.84,0,0,1,240.69,257.52Zm0-2.67a.83.83,0,0,0-.83.83.84.84,0,0,0,.83.84.85.85,0,0,0,.84-.84A.84.84,0,0,0,240.69,254.85Z" style="fill:#263238"></path><path d="M249.79,264.06a2.76,2.76,0,1,1,2.76-2.76A2.76,2.76,0,0,1,249.79,264.06Z" style="fill:#263238"></path><path d="M249.79,264.56a3.26,3.26,0,1,1,3.26-3.26A3.27,3.27,0,0,1,249.79,264.56Zm0-5.52a2.26,2.26,0,1,0,2.26,2.26A2.26,2.26,0,0,0,249.79,259Z" style="fill:#263238"></path><circle cx="249.79" cy="261.3" r="1.34" style="fill:#fff"></circle><path d="M249.79,263.14a1.84,1.84,0,1,1,1.84-1.84A1.84,1.84,0,0,1,249.79,263.14Zm0-2.67a.83.83,0,0,0-.83.83.84.84,0,0,0,.83.84.85.85,0,0,0,.84-.84A.84.84,0,0,0,249.79,260.47Z" style="fill:#263238"></path><rect x="239.98" y="216.9" width="2" height="37.19" style="fill:#263238"></rect><rect x="231.01" y="222.77" width="2" height="37.19" style="fill:#263238"></rect><rect x="197.96" y="110.01" width="5.67" height="11.02" style="fill:#fff"></rect><path d="M204.13,121.53h-6.67v-12h6.67Zm-5.67-1h4.67v-10h-4.67Z" style="fill:#263238"></path><rect x="197.96" y="112.32" width="5.67" height="6.39" style="fill:#fff"></rect><path d="M204.13,119.22h-6.67v-7.4h6.67Zm-5.67-1h4.67v-5.4h-4.67Z" style="fill:#263238"></path><rect x="194.08" y="247.3" width="5.67" height="11.02" style="fill:#fff"></rect><path d="M200.24,258.82h-6.66v-12h6.66Zm-5.66-1h4.66v-10h-4.66Z" style="fill:#263238"></path><rect x="194.08" y="249.61" width="5.67" height="6.39" style="fill:#fff"></rect><path d="M200.24,256.51h-6.66v-7.4h6.66Zm-5.66-1h4.66v-5.4h-4.66Z" style="fill:#263238"></path><rect x="256.19" y="235.13" width="5.67" height="11.02" style="fill:#fff"></rect><path d="M262.36,246.65h-6.67v-12h6.67Zm-5.67-1h4.67v-10h-4.67Z" style="fill:#263238"></path><rect x="256.19" y="237.44" width="5.67" height="6.39" style="fill:#fff"></rect><path d="M262.36,244.34h-6.67v-7.4h6.67Zm-5.67-1h4.67v-5.4h-4.67Z" style="fill:#263238"></path><polygon points="259.83 142.77 257.83 142.77 257.83 133.27 262.85 126.97 262.85 120.4 264.85 120.4 264.85 127.67 259.83 133.97 259.83 142.77" style="fill:#263238"></polygon><path d="M259.69,130.86a2.76,2.76,0,1,1-2.76,2.76A2.77,2.77,0,0,1,259.69,130.86Z" style="fill:#263238"></path><path d="M259.69,136.88a3.26,3.26,0,1,1,3.26-3.26A3.26,3.26,0,0,1,259.69,136.88Zm0-5.52a2.26,2.26,0,1,0,2.26,2.26A2.26,2.26,0,0,0,259.69,131.36Z" style="fill:#263238"></path><circle cx="259.69" cy="133.62" r="1.34" style="fill:#fff"></circle><path d="M259.69,135.46a1.84,1.84,0,1,1,1.83-1.84A1.84,1.84,0,0,1,259.69,135.46Zm0-2.68a.84.84,0,0,0,0,1.68.84.84,0,0,0,0-1.68Z" style="fill:#263238"></path><path d="M301.41,144.63a2.76,2.76,0,1,1-2.76,2.76A2.76,2.76,0,0,1,301.41,144.63Z" style="fill:#263238"></path><path d="M301.41,150.65a3.26,3.26,0,1,1,3.26-3.26A3.26,3.26,0,0,1,301.41,150.65Zm0-5.52a2.26,2.26,0,1,0,2.26,2.26A2.27,2.27,0,0,0,301.41,145.13Z" style="fill:#263238"></path><circle cx="301.41" cy="147.39" r="1.34" style="fill:#fff"></circle><path d="M301.41,149.23a1.84,1.84,0,1,1,1.84-1.84A1.83,1.83,0,0,1,301.41,149.23Zm0-2.67a.83.83,0,0,0-.83.83.84.84,0,0,0,.83.84.85.85,0,0,0,.84-.84A.84.84,0,0,0,301.41,146.56Z" style="fill:#263238"></path><rect x="260.71" y="110.01" width="5.67" height="11.02" transform="translate(527.08 231.04) rotate(180)" style="fill:#fff"></rect><path d="M266.87,121.53h-6.66v-12h6.66Zm-5.66-1h4.66v-10h-4.66Z" style="fill:#263238"></path><rect x="260.71" y="112.32" width="5.67" height="6.39" transform="translate(527.08 231.04) rotate(180)" style="fill:#fff"></rect><path d="M266.87,119.22h-6.66v-7.4h6.66Zm-5.66-1h4.66v-5.4h-4.66Z" style="fill:#263238"></path><polygon points="197.63 142.77 195.63 142.77 195.63 136.9 188.89 128.08 188.89 118.42 190.89 118.42 190.89 127.41 197.63 136.22 197.63 142.77" style="fill:#263238"></polygon><rect x="187.05" y="110.01" width="5.67" height="11.02" style="fill:#fff"></rect><path d="M193.22,121.53h-6.67v-12h6.67Zm-5.67-1h4.67v-10h-4.67Z" style="fill:#263238"></path><rect x="187.05" y="112.32" width="5.67" height="6.39" style="fill:#fff"></rect><path d="M193.22,119.22h-6.67v-7.4h6.67Zm-5.67-1h4.67v-5.4h-4.67Z" style="fill:#263238"></path><polygon points="277.65 152.67 268.26 152.67 268.26 150.67 275.65 150.67 275.65 118.72 277.65 118.72 277.65 152.67" style="fill:#263238"></polygon><rect x="273.82" y="110.01" width="5.67" height="11.02" transform="translate(553.3 231.04) rotate(180)" style="fill:#fff"></rect><path d="M280,121.53h-6.66v-12H280Zm-5.66-1H279v-10h-4.66Z" style="fill:#263238"></path><rect x="273.82" y="112.32" width="5.67" height="6.39" transform="translate(553.3 231.04) rotate(180)" style="fill:#fff"></rect><path d="M280,119.22h-6.66v-7.4H280Zm-5.66-1H279v-5.4h-4.66Z" style="fill:#263238"></path><rect x="298.47" y="132.78" width="5.67" height="11.02" transform="translate(602.62 276.58) rotate(180)" style="fill:#fff"></rect><path d="M304.64,144.3H298v-12h6.67Zm-5.67-1h4.67v-10H299Z" style="fill:#263238"></path><rect x="298.47" y="135.09" width="5.67" height="6.39" transform="translate(602.62 276.58) rotate(180)" style="fill:#fff"></rect><path d="M304.64,142H298v-7.4h6.67ZM299,141h4.67v-5.4H299Z" style="fill:#263238"></path><polygon points="282.7 179.11 268.26 179.11 268.26 177.11 281.52 177.11 291.6 158.96 291.6 147.89 293.6 147.89 293.6 159.48 282.7 179.11" style="fill:#263238"></polygon><rect x="289.77" y="138.55" width="5.67" height="11.02" transform="translate(585.2 288.12) rotate(180)" style="fill:#fff"></rect><path d="M295.93,150.07h-6.66v-12h6.66Zm-5.66-1h4.66v-10h-4.66Z" style="fill:#263238"></path><rect x="289.77" y="140.86" width="5.67" height="6.39" transform="translate(585.2 288.12) rotate(180)" style="fill:#fff"></rect><path d="M295.93,147.76h-6.66v-7.4h6.66Zm-5.66-1h4.66v-5.4h-4.66Z" style="fill:#263238"></path><rect x="268.68" y="160.32" width="22.66" height="2" style="fill:#263238"></rect><rect x="268.68" y="168.29" width="18.05" height="2" style="fill:#263238"></rect><polygon points="292.3 202.61 284.74 197.57 267.42 197.57 267.42 195.57 285.35 195.57 292.9 200.6 298.15 200.53 298.18 202.53 292.3 202.61" style="fill:#263238"></polygon><path d="M298.21,204.53l-.09-6,20.44-.28a7,7,0,0,0,5.73-10.76l-.2-.3a6.93,6.93,0,0,0-5.82-3.15H297.64v-6h20.63a12.92,12.92,0,0,1,10.84,5.87l.2.3a13,13,0,0,1-10.67,20Z" style="fill:#263238"></path><polygon points="285.44 188.34 267.42 188.34 267.42 186.34 284.65 186.34 291.36 180.04 297.64 180.04 297.64 182.04 292.15 182.04 285.44 188.34" style="fill:#263238"></polygon><rect x="295.33" y="174.86" width="5.67" height="11.02" transform="translate(117.79 478.52) rotate(-90)" style="fill:#fff"></rect><path d="M304.17,183.7h-12V177h12Zm-11-1h10V178h-10Z" style="fill:#263238"></path><rect x="295.33" y="177.17" width="5.67" height="6.39" transform="translate(117.79 478.52) rotate(-90)" style="fill:#fff"></rect><path d="M301.86,183.7h-7.4V177h7.4Zm-6.4-1h5.4V178h-5.4Z" style="fill:#263238"></path><rect x="315.37" y="174.86" width="5.67" height="11.02" transform="translate(137.83 498.56) rotate(-90)" style="fill:#fff"></rect><path d="M324.21,183.7h-12V177h12Zm-11-1h10V178h-10Z" style="fill:#263238"></path><rect x="315.37" y="177.17" width="5.67" height="6.39" transform="translate(137.83 498.56) rotate(-90)" style="fill:#fff"></rect><path d="M321.9,183.7h-7.4V177h7.4Zm-6.4-1h5.4V178h-5.4Z" style="fill:#263238"></path><rect x="295.33" y="195.68" width="5.67" height="11.02" transform="translate(96.97 499.35) rotate(-90)" style="fill:#fff"></rect><path d="M304.17,204.52h-12v-6.66h12Zm-11-1h10v-4.66h-10Z" style="fill:#263238"></path><rect x="295.33" y="197.99" width="5.67" height="6.39" transform="translate(96.97 499.35) rotate(-90)" style="fill:#fff"></rect><path d="M301.86,204.52h-7.4v-6.66h7.4Zm-6.4-1h5.4v-4.66h-5.4Z" style="fill:#263238"></path><rect x="315.37" y="195.68" width="5.67" height="11.02" transform="translate(117.01 519.39) rotate(-90)" style="fill:#fff"></rect><path d="M324.21,204.52h-12v-6.66h12Zm-11-1h10v-4.66h-10Z" style="fill:#263238"></path><rect x="315.37" y="197.99" width="5.67" height="6.39" transform="translate(117.01 519.39) rotate(-90)" style="fill:#fff"></rect><path d="M321.9,204.52h-7.4v-6.66h7.4Zm-6.4-1h5.4v-4.66h-5.4Z" style="fill:#263238"></path><polygon points="303.93 213.94 293.52 213.94 283.45 206.39 267 206.39 267 204.39 284.12 204.39 294.19 211.94 303.93 211.94 303.93 213.94" style="fill:#263238"></polygon><rect x="295.33" y="207.01" width="5.67" height="11.02" transform="matrix(-0.02, -1, 1, -0.02, 90.56, 514.13)" style="fill:#fff"></rect><path d="M292.21,216l-.11-6.66,12-.2.11,6.66Zm.9-5.68.08,4.67,10-.17-.08-4.66Z" style="fill:#263238"></path><rect x="295.33" y="209.32" width="5.67" height="6.39" transform="matrix(-0.02, -1, 1, -0.02, 90.56, 514.13)" style="fill:#fff"></rect><path d="M294.52,215.91l-.11-6.66,7.39-.12.11,6.66Zm.9-5.68.08,4.67,5.4-.09-.08-4.67Z" style="fill:#263238"></path><path d="M289.85,207a2.76,2.76,0,1,1-2.76,2.76A2.76,2.76,0,0,1,289.85,207Z" style="fill:#263238"></path><path d="M289.85,213a3.26,3.26,0,1,1,3.26-3.26A3.26,3.26,0,0,1,289.85,213Zm0-5.52a2.26,2.26,0,1,0,2.26,2.26A2.26,2.26,0,0,0,289.85,207.52Z" style="fill:#263238"></path><circle cx="289.85" cy="209.78" r="1.34" style="fill:#fff"></circle><path d="M289.85,211.61a1.84,1.84,0,1,1,1.83-1.83A1.83,1.83,0,0,1,289.85,211.61Zm0-2.67a.85.85,0,0,0-.84.84.84.84,0,0,0,.84.83.83.83,0,0,0,.83-.83A.84.84,0,0,0,289.85,208.94Z" style="fill:#263238"></path><path d="M320.4,256l-4.32-4.71h-24.9V230.07a14.45,14.45,0,0,0-14.45-14.45h-9.31v-2h9.31a16.45,16.45,0,0,1,16.45,16.45v19.22H317l4.92,5.36Z" style="fill:#263238"></path><rect x="300.99" y="254.07" width="29.8" height="25.18" rx="7" style="fill:#fff"></rect><path d="M323.79,279.75H308a7.51,7.51,0,0,1-7.5-7.5V261.07a7.51,7.51,0,0,1,7.5-7.5h15.8a7.5,7.5,0,0,1,7.5,7.5v11.18A7.5,7.5,0,0,1,323.79,279.75ZM308,254.57a6.51,6.51,0,0,0-6.5,6.5v11.18a6.51,6.51,0,0,0,6.5,6.5h15.8a6.51,6.51,0,0,0,6.5-6.5V261.07a6.51,6.51,0,0,0-6.5-6.5Z" style="fill:#263238"></path><rect x="303.48" y="256.17" width="24.83" height="20.98" rx="7" style="fill:#fff"></rect><path d="M321.31,277.65H310.48a7.5,7.5,0,0,1-7.5-7.5v-7a7.5,7.5,0,0,1,7.5-7.5h10.83a7.51,7.51,0,0,1,7.5,7.5v7A7.51,7.51,0,0,1,321.31,277.65Zm-10.83-21a6.5,6.5,0,0,0-6.5,6.5v7a6.5,6.5,0,0,0,6.5,6.5h10.83a6.51,6.51,0,0,0,6.5-6.5v-7a6.51,6.51,0,0,0-6.5-6.5Z" style="fill:#263238"></path><rect x="258.02" y="217.98" width="2" height="13.43" style="fill:#263238"></rect><path d="M259.44,233.5a2.76,2.76,0,1,1,2.29-2.29A2.76,2.76,0,0,1,259.44,233.5Z" style="fill:#263238"></path><path d="M259,234a3.26,3.26,0,1,1,.52,0A4.55,4.55,0,0,1,259,234Zm0-5.52a2.19,2.19,0,0,0-.36,0,2.26,2.26,0,1,0,.72,4.46h0a2.26,2.26,0,0,0,1.24-3.83A2.25,2.25,0,0,0,259,228.52Z" style="fill:#263238"></path><path d="M259.34,229.48a1.34,1.34,0,0,0-1.63,1.63,1.34,1.34,0,1,0,1.63-1.63Z" style="fill:#fff"></path><path d="M259,232.61a1.73,1.73,0,0,1-.45-.05,1.84,1.84,0,1,1,2.23-2.23,1.87,1.87,0,0,1-.48,1.75A1.83,1.83,0,0,1,259,232.61Zm0-2.67a.82.82,0,0,0-.59.25.84.84,0,0,0,.37,1.4.84.84,0,0,0,1-1,.83.83,0,0,0-.6-.59h0Z" style="fill:#263238"></path><polygon points="170.21 235.18 168.21 235.18 168.21 220.95 175.48 212.78 188.52 212.78 188.52 214.78 176.38 214.78 170.21 221.71 170.21 235.18" style="fill:#263238"></polygon><polygon points="158.04 241.06 156.04 241.06 156.04 215.12 164.52 203.97 190.2 203.97 190.2 205.97 165.51 205.97 158.04 215.79 158.04 241.06" style="fill:#263238"></polygon><path d="M169.58,237.88a2.77,2.77,0,1,1,2.29-2.29A2.77,2.77,0,0,1,169.58,237.88Z" style="fill:#263238"></path><path d="M169.14,238.41a3.26,3.26,0,1,1,.51,0A2.92,2.92,0,0,1,169.14,238.41Zm0-5.52-.36,0a2.26,2.26,0,1,0,.72,4.46h0a2.26,2.26,0,0,0,1.24-3.83A2.25,2.25,0,0,0,169.14,232.89Z" style="fill:#263238"></path><path d="M169.47,233.85a1.34,1.34,0,0,0-1.63,1.63,1.34,1.34,0,0,0,2.6-.66A1.36,1.36,0,0,0,169.47,233.85Z" style="fill:#fff"></path><path d="M169.14,237a1.73,1.73,0,0,1-.45,0,1.84,1.84,0,1,1,.9-3.56h0a1.83,1.83,0,0,1,1.33,1.33,1.87,1.87,0,0,1-.48,1.75A1.83,1.83,0,0,1,169.14,237Zm0-2.67a.84.84,0,0,0-.22,1.65.84.84,0,0,0,1-1,.83.83,0,0,0-.6-.59h0A.76.76,0,0,0,169.14,234.31Z" style="fill:#263238"></path><path d="M157.81,242.49a2.76,2.76,0,1,1,2.29-2.29A2.76,2.76,0,0,1,157.81,242.49Z" style="fill:#263238"></path><path d="M157.37,243a3.26,3.26,0,0,1-3.22-3.77,3.26,3.26,0,1,1,3.74,3.73A3.12,3.12,0,0,1,157.37,243Zm0-5.52a2.19,2.19,0,0,0-.36,0,2.3,2.3,0,0,0-1.87,1.87,2.28,2.28,0,0,0,2.59,2.6h0a2.32,2.32,0,0,0,1.88-1.88,2.23,2.23,0,0,0-.64-2A2.26,2.26,0,0,0,157.37,237.5Z" style="fill:#263238"></path><path d="M157.71,238.47a1.34,1.34,0,0,0-1.63,1.63,1.32,1.32,0,0,0,1,1,1.34,1.34,0,0,0,1.63-1.63A1.32,1.32,0,0,0,157.71,238.47Z" style="fill:#fff"></path><path d="M157.37,241.6a1.74,1.74,0,0,1-.45-.06,1.8,1.8,0,0,1-1.33-1.33,1.85,1.85,0,0,1,2.23-2.23h0a1.8,1.8,0,0,1,1.33,1.33,1.84,1.84,0,0,1-1.78,2.29Zm0-2.67a.82.82,0,0,0-.59.24.85.85,0,0,0-.22.81.84.84,0,0,0,1.4.37.79.79,0,0,0,.22-.8.82.82,0,0,0-.59-.6h0Z" style="fill:#263238"></path><polygon points="190.2 197.33 164.52 197.33 156.04 186.17 156.04 119.94 158.04 119.94 158.04 185.5 165.51 195.33 190.2 195.33 190.2 197.33" style="fill:#263238"></polygon><path d="M157.81,118.51a2.76,2.76,0,1,0,2.29,2.29A2.76,2.76,0,0,0,157.81,118.51Z" style="fill:#263238"></path><path d="M157.38,124.5a3,3,0,0,1-.52,0,3.26,3.26,0,0,1,1-6.44h0a3.26,3.26,0,0,1-.51,6.48Zm0-5.52a2.22,2.22,0,0,0-1.59.66,2.26,2.26,0,0,0-.64,2,2.26,2.26,0,0,0,3.83,1.24,2.26,2.26,0,0,0,.64-2,2.3,2.3,0,0,0-1.88-1.87A2.19,2.19,0,0,0,157.37,119Z" style="fill:#263238"></path><path d="M157.71,122.54a1.34,1.34,0,1,1,1-1A1.34,1.34,0,0,1,157.71,122.54Z" style="fill:#fff"></path><path d="M157.37,123.08a1.8,1.8,0,0,1-1.29-.54,1.85,1.85,0,0,1-.49-1.75,1.83,1.83,0,0,1,1.33-1.33,1.87,1.87,0,0,1,1.75.48,1.85,1.85,0,0,1,.49,1.75,1.83,1.83,0,0,1-1.34,1.33h0A1.74,1.74,0,0,1,157.37,123.08Zm0-2.68a.76.76,0,0,0-.21,0,.83.83,0,0,0-.38,1.4.85.85,0,0,0,.81.22.82.82,0,0,0,.59-.59.8.8,0,0,0-.22-.81A.82.82,0,0,0,157.37,120.4Z" style="fill:#263238"></path><polygon points="195.65 188.27 169.97 188.27 161.5 177.11 161.5 110.88 163.5 110.88 163.5 176.44 170.97 186.27 195.65 186.27 195.65 188.27" style="fill:#263238"></polygon><path d="M163.27,109.45a2.77,2.77,0,1,0,2.29,2.29A2.77,2.77,0,0,0,163.27,109.45Z" style="fill:#263238"></path><path d="M162.83,115.44a2.92,2.92,0,0,1-.51,0,3.26,3.26,0,1,1,1-6.44h0a3.26,3.26,0,0,1,2.71,2.71,3.27,3.27,0,0,1-3.22,3.77Zm0-5.52a2.25,2.25,0,0,0-1.6.66,2.26,2.26,0,1,0,2-.63h0A2.19,2.19,0,0,0,162.83,109.92Z" style="fill:#263238"></path><path d="M163.16,113.47a1.34,1.34,0,0,1-1.63-1.62,1.36,1.36,0,0,1,1-1,1.34,1.34,0,0,1,1.62,1.63A1.3,1.3,0,0,1,163.16,113.47Z" style="fill:#fff"></path><path d="M162.83,114a1.82,1.82,0,0,1-1.78-2.28,1.8,1.8,0,0,1,1.33-1.33,1.82,1.82,0,0,1,1.75.48,1.87,1.87,0,0,1,.48,1.75,1.83,1.83,0,0,1-1.33,1.33h0A1.73,1.73,0,0,1,162.83,114Zm0-2.67-.22,0a.84.84,0,0,0-.59.59.85.85,0,0,0,.22.81.84.84,0,0,0,.8.22h0a.84.84,0,0,0-.21-1.65Z" style="fill:#263238"></path><polygon points="201.53 179.45 175.85 179.45 167.37 168.3 167.37 102.07 169.37 102.07 169.37 167.63 176.84 177.45 201.53 177.45 201.53 179.45" style="fill:#263238"></polygon><path d="M169.14,100.64a2.76,2.76,0,1,0,2.29,2.29A2.76,2.76,0,0,0,169.14,100.64Z" style="fill:#263238"></path><path d="M168.71,106.63a4.73,4.73,0,0,1-.52,0,3.26,3.26,0,1,1,1-6.44h0a3.26,3.26,0,0,1-.51,6.48Zm0-5.52a2.27,2.27,0,0,0-2.24,2.62,2.3,2.3,0,0,0,1.87,1.87,2.28,2.28,0,0,0,2.6-2.59,2.3,2.3,0,0,0-1.87-1.88h0Z" style="fill:#263238"></path><path d="M169,104.66a1.34,1.34,0,1,1,1-1A1.32,1.32,0,0,1,169,104.66Z" style="fill:#fff"></path><path d="M168.71,105.2a1.84,1.84,0,1,1,1.29-3.13,1.83,1.83,0,0,1-.85,3.08h0A2.28,2.28,0,0,1,168.71,105.2Zm0-2.67a.78.78,0,0,0-.22,0,.79.79,0,0,0-.59.59.83.83,0,0,0,.21.81.86.86,0,0,0,.81.22h0a.84.84,0,0,0,.38-1.4A.83.83,0,0,0,168.71,102.53Z" style="fill:#263238"></path><rect x="124.26" y="138.14" width="2" height="14.69" style="fill:#263238"></rect><path d="M125.72,142.19a2.76,2.76,0,1,0,2.29,2.29A2.76,2.76,0,0,0,125.72,142.19Z" style="fill:#263238"></path><path d="M125.29,148.17a3.12,3.12,0,0,1-.52,0,3.26,3.26,0,0,1,1-6.44h0a3.26,3.26,0,0,1,1.79,5.53A3.23,3.23,0,0,1,125.29,148.17Zm0-5.52a2.26,2.26,0,0,0-1.6.67,2.23,2.23,0,0,0-.64,2,2.31,2.31,0,0,0,1.87,1.88,2.28,2.28,0,0,0,2.6-2.6,2.3,2.3,0,0,0-1.87-1.87Z" style="fill:#263238"></path><path d="M125.62,146.21a1.34,1.34,0,0,1-1.63-1.63,1.32,1.32,0,0,1,1-1,1.34,1.34,0,0,1,.67,2.59Z" style="fill:#fff"></path><path d="M125.29,146.75a1.82,1.82,0,0,1-1.3-.54,1.83,1.83,0,1,1,1.74.49A2.28,2.28,0,0,1,125.29,146.75Zm0-2.67-.22,0a.84.84,0,0,0-.38,1.4.81.81,0,0,0,.81.22h0a.79.79,0,0,0,.59-.59.82.82,0,0,0-.8-1Z" style="fill:#263238"></path><rect x="118.33" y="131.8" width="5.67" height="11.02" transform="translate(-14.13 260.71) rotate(-90.94)" style="fill:#fff"></rect><path d="M115.21,140.74l-.11-6.67,12-.2.11,6.67Zm.91-5.69.08,4.67,10-.16-.07-4.67Z" style="fill:#263238"></path><rect x="118.33" y="134.11" width="5.67" height="6.39" transform="matrix(-0.02, -1, 1, -0.02, -14.13, 260.71)" style="fill:#fff"></rect><path d="M117.52,140.7l-.11-6.67,7.4-.12.11,6.67Zm.91-5.68.08,4.66,5.39-.09-.08-4.66Z" style="fill:#263238"></path><rect x="124.26" y="198.48" width="2" height="14.69" style="fill:#263238"></rect><path d="M125.72,209.12a2.76,2.76,0,1,1,2.29-2.29A2.76,2.76,0,0,1,125.72,209.12Z" style="fill:#263238"></path><path d="M125.28,209.65a3.26,3.26,0,0,1-3.22-3.77,3.28,3.28,0,0,1,2.71-2.71,3.27,3.27,0,0,1,3.74,3.73,3.27,3.27,0,0,1-2.71,2.71A3.12,3.12,0,0,1,125.28,209.65Zm0-5.52a2.27,2.27,0,0,0-2.23,1.9,2.27,2.27,0,0,0,2.6,2.59h0a2.28,2.28,0,0,0,1.87-1.87,2.26,2.26,0,0,0-.64-2A2.23,2.23,0,0,0,125.28,204.13Z" style="fill:#263238"></path><path d="M125.62,205.1a1.34,1.34,0,1,0,1,1A1.32,1.32,0,0,0,125.62,205.1Z" style="fill:#fff"></path><path d="M125.28,208.23a1.72,1.72,0,0,1-.44-.06,1.81,1.81,0,0,1-1.34-1.33,1.84,1.84,0,0,1,2.23-2.23h0a1.83,1.83,0,0,1,1.34,1.33,1.85,1.85,0,0,1-.49,1.75A1.82,1.82,0,0,1,125.28,208.23Zm0-2.67a.82.82,0,0,0-.8,1.05.8.8,0,0,0,.59.59.84.84,0,0,0,.81-.22.84.84,0,0,0-.38-1.4h0Z" style="fill:#263238"></path><rect x="118.33" y="208.49" width="5.67" height="11.02" transform="matrix(-0.02, 1, -1, -0.02, 337.13, 96.36)" style="fill:#fff"></rect><path d="M127.12,217.43l-12-.2.11-6.66,12,.2Zm-11-1.18,10,.17.07-4.67-10-.16Z" style="fill:#263238"></path><rect x="118.33" y="210.8" width="5.67" height="6.39" transform="matrix(-0.02, 1, -1, -0.02, 337.13, 96.36)" style="fill:#fff"></rect><path d="M124.81,217.39l-7.4-.12.11-6.66,7.4.12Zm-6.38-1.1,5.39.09.08-4.67-5.39-.09Z" style="fill:#263238"></path><rect x="112.09" y="151.82" width="23.3" height="7.09" style="fill:#fff"></rect><path d="M135.89,159.41h-24.3v-8.09h24.3Zm-23.3-1h22.3v-6.09h-22.3Z" style="fill:#263238"></path><rect x="112.09" y="192.84" width="23.3" height="7.09" style="fill:#fff"></rect><path d="M135.89,200.43h-24.3v-8.09h24.3Zm-23.3-1h22.3v-6.09h-22.3Z" style="fill:#263238"></path><rect x="115.13" y="155.36" width="16.21" height="40.01" style="fill:#263238"></rect><path d="M131.83,195.87h-17.2v-41h17.2Zm-16.2-1h15.2v-39h-15.2Z" style="fill:#263238"></path><rect x="325.51" y="113.91" width="6" height="77.55" style="fill:#263238"></rect><rect x="315.05" y="91.01" width="6.92" height="23.29" style="fill:#fff"></rect><path d="M322.48,114.8h-7.93V90.51h7.93Zm-6.93-1h5.93V91.51h-5.93Z" style="fill:#263238"></path><rect x="325.44" y="95.1" width="6.92" height="23.29" style="fill:#fff"></rect><path d="M332.86,118.89h-7.92V94.6h7.92Zm-6.92-1h5.92V95.6h-5.92Z" style="fill:#263238"></path><rect x="335.83" y="91.01" width="6.92" height="23.29" style="fill:#fff"></rect><path d="M343.25,114.8h-7.92V90.51h7.92Zm-6.92-1h5.92V91.51h-5.92Z" style="fill:#263238"></path><rect x="195.25" y="140.21" width="2.76" height="5.13" style="fill:#fff"></rect><path d="M198.51,145.83h-3.76v-6.12h3.76Zm-2.76-1h1.76v-4.12h-1.76Z" style="fill:#263238"></path><rect x="204.12" y="140.21" width="2.76" height="5.13" style="fill:#fff"></rect><path d="M207.38,145.83h-3.76v-6.12h3.76Zm-2.76-1h1.76v-4.12h-1.76Z" style="fill:#263238"></path><rect x="212.99" y="140.21" width="2.76" height="5.13" style="fill:#fff"></rect><path d="M216.25,145.83h-3.76v-6.12h3.76Zm-2.76-1h1.76v-4.12h-1.76Z" style="fill:#263238"></path><rect x="221.87" y="140.21" width="2.76" height="5.13" style="fill:#fff"></rect><path d="M225.12,145.83h-3.75v-6.12h3.75Zm-2.75-1h1.75v-4.12h-1.75Z" style="fill:#263238"></path><rect x="230.74" y="140.21" width="2.76" height="5.13" style="fill:#fff"></rect><path d="M234,145.83h-3.76v-6.12H234Zm-2.76-1H233v-4.12h-1.76Z" style="fill:#263238"></path><rect x="239.61" y="140.21" width="2.76" height="5.13" style="fill:#fff"></rect><path d="M242.87,145.83h-3.76v-6.12h3.76Zm-2.76-1h1.76v-4.12h-1.76Z" style="fill:#263238"></path><rect x="248.48" y="140.21" width="2.76" height="5.13" style="fill:#fff"></rect><path d="M251.74,145.83H248v-6.12h3.76Zm-2.76-1h1.76v-4.12H249Z" style="fill:#263238"></path><rect x="257.35" y="140.21" width="2.76" height="5.13" style="fill:#fff"></rect><path d="M260.61,145.83h-3.76v-6.12h3.76Zm-2.76-1h1.76v-4.12h-1.76Z" style="fill:#263238"></path><rect x="195.25" y="219.02" width="2.76" height="5.13" style="fill:#fff"></rect><path d="M198.51,224.65h-3.76v-6.13h3.76Zm-2.76-1h1.76v-4.13h-1.76Z" style="fill:#263238"></path><rect x="204.12" y="219.02" width="2.76" height="5.13" style="fill:#fff"></rect><path d="M207.38,224.65h-3.76v-6.13h3.76Zm-2.76-1h1.76v-4.13h-1.76Z" style="fill:#263238"></path><rect x="212.99" y="219.02" width="2.76" height="5.13" style="fill:#fff"></rect><path d="M216.25,224.65h-3.76v-6.13h3.76Zm-2.76-1h1.76v-4.13h-1.76Z" style="fill:#263238"></path><rect x="221.87" y="219.02" width="2.76" height="5.13" style="fill:#fff"></rect><path d="M225.12,224.65h-3.75v-6.13h3.75Zm-2.75-1h1.75v-4.13h-1.75Z" style="fill:#263238"></path><rect x="230.74" y="219.02" width="2.76" height="5.13" style="fill:#fff"></rect><path d="M234,224.65h-3.76v-6.13H234Zm-2.76-1H233v-4.13h-1.76Z" style="fill:#263238"></path><rect x="239.61" y="219.02" width="2.76" height="5.13" style="fill:#fff"></rect><path d="M242.87,224.65h-3.76v-6.13h3.76Zm-2.76-1h1.76v-4.13h-1.76Z" style="fill:#263238"></path><rect x="248.48" y="219.02" width="2.76" height="5.13" style="fill:#fff"></rect><path d="M251.74,224.65H248v-6.13h3.76Zm-2.76-1h1.76v-4.13H249Z" style="fill:#263238"></path><rect x="257.35" y="219.02" width="2.76" height="5.13" style="fill:#fff"></rect><path d="M260.61,224.65h-3.76v-6.13h3.76Zm-2.76-1h1.76v-4.13h-1.76Z" style="fill:#263238"></path><rect x="265.8" y="211.52" width="2.76" height="5.13" transform="translate(53.09 481.27) rotate(-90)" style="fill:#fff"></rect><path d="M270.24,216h-6.12v-3.76h6.12Zm-5.12-1h4.12v-1.76h-4.12Z" style="fill:#263238"></path><rect x="265.8" y="202.65" width="2.76" height="5.13" transform="translate(61.96 472.39) rotate(-90)" style="fill:#fff"></rect><path d="M270.24,207.1h-6.12v-3.77h6.12Zm-5.12-1h4.12v-1.77h-4.12Z" style="fill:#263238"></path><rect x="265.8" y="193.78" width="2.76" height="5.13" transform="translate(70.83 463.52) rotate(-90)" style="fill:#fff"></rect><path d="M270.24,198.22h-6.12v-3.76h6.12Zm-5.12-1h4.12v-1.76h-4.12Z" style="fill:#263238"></path><rect x="265.8" y="184.91" width="2.76" height="5.13" transform="translate(79.71 454.65) rotate(-90)" style="fill:#fff"></rect><path d="M270.24,189.35h-6.12v-3.76h6.12Zm-5.12-1h4.12v-1.76h-4.12Z" style="fill:#263238"></path><rect x="265.8" y="176.04" width="2.76" height="5.13" transform="translate(88.58 445.78) rotate(-90)" style="fill:#fff"></rect><path d="M270.24,180.48h-6.12v-3.76h6.12Zm-5.12-1h4.12v-1.76h-4.12Z" style="fill:#263238"></path><rect x="265.8" y="167.17" width="2.76" height="5.13" transform="translate(97.45 436.91) rotate(-90)" style="fill:#fff"></rect><path d="M270.24,171.61h-6.12v-3.76h6.12Zm-5.12-1h4.12v-1.76h-4.12Z" style="fill:#263238"></path><rect x="265.8" y="158.3" width="2.76" height="5.13" transform="translate(106.32 428.04) rotate(-90)" style="fill:#fff"></rect><path d="M270.24,162.74h-6.12V159h6.12Zm-5.12-1h4.12V160h-4.12Z" style="fill:#263238"></path><rect x="265.8" y="149.43" width="2.76" height="5.13" transform="translate(115.19 419.17) rotate(-90)" style="fill:#fff"></rect><path d="M270.24,153.87h-6.12v-3.76h6.12Zm-5.12-1h4.12v-1.76h-4.12Z" style="fill:#263238"></path><rect x="186.56" y="211.52" width="2.76" height="5.13" transform="translate(-26.15 402.02) rotate(-90)" style="fill:#fff"></rect><path d="M191,216h-6.13v-3.76H191Zm-5.13-1H190v-1.76h-4.13Z" style="fill:#263238"></path><rect x="186.56" y="202.65" width="2.76" height="5.13" transform="translate(-17.28 393.15) rotate(-90)" style="fill:#fff"></rect><path d="M191,207.1h-6.13v-3.77H191Zm-5.13-1H190v-1.77h-4.13Z" style="fill:#263238"></path><rect x="186.56" y="193.78" width="2.76" height="5.13" transform="translate(-8.41 384.28) rotate(-90)" style="fill:#fff"></rect><path d="M191,198.22h-6.13v-3.76H191Zm-5.13-1H190v-1.76h-4.13Z" style="fill:#263238"></path><rect x="186.56" y="184.91" width="2.76" height="5.13" transform="translate(0.46 375.41) rotate(-90)" style="fill:#fff"></rect><path d="M191,189.35h-6.13v-3.76H191Zm-5.13-1H190v-1.76h-4.13Z" style="fill:#263238"></path><rect x="186.56" y="176.04" width="2.76" height="5.13" transform="translate(9.33 366.54) rotate(-90)" style="fill:#fff"></rect><path d="M191,180.48h-6.13v-3.76H191Zm-5.13-1H190v-1.76h-4.13Z" style="fill:#263238"></path><rect x="186.56" y="167.17" width="2.76" height="5.13" transform="translate(18.2 357.67) rotate(-90)" style="fill:#fff"></rect><path d="M191,171.61h-6.13v-3.76H191Zm-5.13-1H190v-1.76h-4.13Z" style="fill:#263238"></path><rect x="186.56" y="158.3" width="2.76" height="5.13" transform="translate(27.07 348.8) rotate(-90)" style="fill:#fff"></rect><path d="M191,162.74h-6.13V159H191Zm-5.13-1H190V160h-4.13Z" style="fill:#263238"></path><rect x="186.56" y="149.43" width="2.76" height="5.13" transform="translate(35.95 339.92) rotate(-90)" style="fill:#fff"></rect><path d="M191,153.87h-6.13v-3.76H191Zm-5.13-1H190v-1.76h-4.13Z" style="fill:#263238"></path><rect x="188.96" y="144.32" width="77.43" height="77.43" style="fill:#263238"></rect><path d="M266.9,222.25H188.46V143.82H266.9Zm-77.44-1H265.9V144.82H189.46Z" style="fill:#263238"></path><circle cx="370.11" cy="78.02" r="17.44" style="fill:#263238"></circle><path d="M370.11,96A17.95,17.95,0,1,1,388.05,78,18,18,0,0,1,370.11,96Zm0-34.89A16.95,16.95,0,1,0,387.05,78,17,17,0,0,0,370.11,61.07Z" style="fill:#263238"></path><circle cx="370.11" cy="78.02" r="11.63" transform="translate(44.8 270.99) rotate(-42.58)" style="fill:#fff"></circle><path d="M370.11,90.15A12.13,12.13,0,1,1,382.24,78,12.15,12.15,0,0,1,370.11,90.15Zm0-23.26A11.13,11.13,0,1,0,381.24,78,11.14,11.14,0,0,0,370.11,66.89Z" style="fill:#263238"></path><circle cx="119.89" cy="262.47" r="10.94" transform="translate(-40.63 22.68) rotate(-9.25)" style="fill:#263238"></circle><path d="M119.89,273.91a11.44,11.44,0,1,1,11.44-11.44A11.45,11.45,0,0,1,119.89,273.91Zm0-21.88a10.44,10.44,0,1,0,10.44,10.44A10.45,10.45,0,0,0,119.89,252Z" style="fill:#263238"></path><circle cx="119.89" cy="262.47" r="7.29" transform="translate(-168.18 279.17) rotate(-68.77)" style="fill:#fff"></circle><path d="M119.89,270.27a7.8,7.8,0,1,1,7.8-7.8A7.8,7.8,0,0,1,119.89,270.27Zm0-14.59a6.8,6.8,0,1,0,6.8,6.79A6.8,6.8,0,0,0,119.89,255.68Z" style="fill:#263238"></path><circle cx="145.05" cy="262.47" r="10.94" transform="translate(-39.45 26.06) rotate(-9.04)" style="fill:#263238"></circle><path d="M145.05,273.91a11.44,11.44,0,1,1,11.44-11.44A11.45,11.45,0,0,1,145.05,273.91Zm0-21.88a10.44,10.44,0,1,0,10.44,10.44A10.45,10.45,0,0,0,145.05,252Z" style="fill:#263238"></path><circle cx="145.05" cy="262.47" r="7.29" transform="translate(-153.48 290.96) rotate(-66.52)" style="fill:#fff"></circle><path d="M145.05,270.27a7.8,7.8,0,1,1,7.8-7.8A7.8,7.8,0,0,1,145.05,270.27Zm0-14.59a6.8,6.8,0,1,0,6.8,6.79A6.79,6.79,0,0,0,145.05,255.68Z" style="fill:#263238"></path></g></svg>