<svg width="60" height="59" viewBox="0 0 60 59" fill="none" xmlns="http://www.w3.org/2000/svg">
<path fill-rule="evenodd" clip-rule="evenodd" d="M29.8335 58C45.5736 58 58.3335 45.2401 58.3335 29.5C58.3335 13.7599 45.5736 1 29.8335 1C14.0934 1 1.3335 13.7599 1.3335 29.5C1.3335 45.2401 14.0934 58 29.8335 58Z" stroke="black" stroke-width="1.69792"/>
<path fill-rule="evenodd" clip-rule="evenodd" d="M36.6734 26.0792H43.6913C44.195 26.0792 44.5781 26.5314 44.4953 27.0282L43.6269 32.2382C43.5614 32.6311 43.2214 32.9192 42.823 32.9192H36.6734V50.0192H29.8334V32.9192H24.9484C24.4983 32.9192 24.1334 32.5543 24.1334 32.1042V26.8942C24.1334 26.4441 24.4983 26.0792 24.9484 26.0792H29.8334V17.8325C29.8334 14.8318 32.266 12.3992 35.2668 12.3992H43.2418C43.3918 12.3992 43.5134 12.5208 43.5134 12.6708V17.8275C43.5134 17.9775 43.3918 18.0992 43.2418 18.0992H39.3901C37.8897 18.0992 36.6734 19.3155 36.6734 20.8158V26.0792Z" fill="black"/>
</svg>
