<svg width="59" height="59" viewBox="0 0 59 59" fill="none" xmlns="http://www.w3.org/2000/svg">
<path fill-rule="evenodd" clip-rule="evenodd" d="M29.5 58C45.2401 58 58 45.2401 58 29.5C58 13.7599 45.2401 1 29.5 1C13.7599 1 0.999969 13.7599 0.999969 29.5C0.999969 45.2401 13.7599 58 29.5 58Z" stroke="black" stroke-width="1.69792"/>
<path fill-rule="evenodd" clip-rule="evenodd" d="M35.884 16.7323H23.116C19.5902 16.7323 16.732 19.5905 16.732 23.1163V35.8843C16.732 39.4101 19.5902 42.2683 23.116 42.2683H35.884C39.4098 42.2683 42.268 39.4101 42.268 35.8843V23.1163C42.268 19.5905 39.4098 16.7323 35.884 16.7323ZM23.116 13.5403C17.8273 13.5403 13.54 17.8276 13.54 23.1163V35.8843C13.54 41.173 17.8273 45.4603 23.116 45.4603H35.884C41.1727 45.4603 45.46 41.173 45.46 35.8843V23.1163C45.46 17.8276 41.1727 13.5403 35.884 13.5403H23.116ZM29.5001 34.8194C32.4382 34.8194 34.8201 32.4375 34.8201 29.4994C34.8201 26.5612 32.4382 24.1794 29.5001 24.1794C26.5619 24.1794 24.1801 26.5612 24.1801 29.4994C24.1801 32.4375 26.5619 34.8194 29.5001 34.8194ZM29.5001 38.0114C34.2011 38.0114 38.0121 34.2004 38.0121 29.4994C38.0121 24.7983 34.2011 20.9874 29.5001 20.9874C24.799 20.9874 20.9881 24.7983 20.9881 29.4994C20.9881 34.2004 24.799 38.0114 29.5001 38.0114ZM38.0121 22.5834C38.8935 22.5834 39.6081 21.8688 39.6081 20.9874C39.6081 20.1059 38.8935 19.3914 38.0121 19.3914C37.1307 19.3914 36.4161 20.1059 36.4161 20.9874C36.4161 21.8688 37.1307 22.5834 38.0121 22.5834Z" fill="black"/>
</svg>
