<svg width="58" height="57" viewBox="0 0 58 57" fill="none" xmlns="http://www.w3.org/2000/svg">
<circle cx="29.1667" cy="28.5" r="27.651" stroke="black" stroke-width="1.69792"/>
<mask id="mask0" mask-type="alpha" maskUnits="userSpaceOnUse" x="0" y="0" width="58" height="57">
<circle cx="29.1667" cy="28.5" r="28.5" fill="#00639C"/>
</mask>
<g mask="url(#mask0)">
<path d="M12.4271 22.8949C12.4271 19.8933 14.8604 17.4599 17.8621 17.4599H63.6514C66.653 17.4599 69.0863 19.8932 69.0863 22.8949V35.8964C69.0863 38.898 66.653 41.3313 63.6514 41.3313H17.8621C14.8604 41.3313 12.4271 38.898 12.4271 35.8964V22.8949Z" stroke="black" stroke-width="2.49412"/>
<path d="M19.7699 24.6923L22.2952 30.1518L25.0185 23.8184L27.7616 30.1518L30.2571 24.6923H32.7526L27.7022 34.973L25.0185 28.8163L22.3051 34.973L17.2645 24.6923H19.7699Z" fill="black"/>
<path d="M35.4759 24.6923L38.0012 30.1518L40.7245 23.8184L43.4676 30.1518L45.9631 24.6923H48.4586L43.4081 34.973L40.7245 28.8163L38.0111 34.973L32.9705 24.6923H35.4759Z" fill="black"/>
<path d="M51.1819 24.6923L53.7072 30.1518L56.4305 23.8184L59.1736 30.1518L61.6691 24.6923H64.1646L59.1141 34.973L56.4305 28.8163L53.7171 34.973L48.6765 24.6923H51.1819Z" fill="black"/>
</g>
</svg>
